<svg xmlns="http://www.w3.org/2000/svg" width="7.847" height="9.426" viewBox="0 0 7.847 9.426">
  <path id="Trazado_10660" data-name="Trazado 10660" d="M7.674,1.543a.527.527,0,0,0-.432-.193H6.637V.844a.85.85,0,0,0-.216-.6A.68.68,0,0,0,5.88,0h-.3a.68.68,0,0,0-.54.241.85.85,0,0,0-.216.6V1.35H3.027V.844a.85.85,0,0,0-.216-.6A.68.68,0,0,0,2.27,0h-.3a.68.68,0,0,0-.54.241.85.85,0,0,0-.216.6V1.35H.605a.609.609,0,0,0-.432.193A.763.763,0,0,0,0,2.025V8.751a.763.763,0,0,0,.173.482.527.527,0,0,0,.432.193H7.242a.609.609,0,0,0,.432-.193.658.658,0,0,0,.173-.482V2.025a.763.763,0,0,0-.173-.482ZM1.967,8.751H.605V7.232H1.967Zm0-1.856H.605V5.207H1.967Zm0-2.025H.605V3.375H1.967ZM1.859,2.483a.141.141,0,0,1-.043-.121V.844A.2.2,0,0,1,1.859.723.157.157,0,0,1,1.967.675h.3a.157.157,0,0,1,.108.048.2.2,0,0,1,.043.121V2.362a.2.2,0,0,1-.043.121.157.157,0,0,1-.108.048h-.3a.157.157,0,0,1-.108-.048ZM3.783,8.751H2.27V7.232H3.783Zm0-1.856H2.27V5.207H3.783Zm0-2.025H2.27V3.375H3.783ZM5.577,8.751H4.064V7.232H5.577Zm0-1.856H4.064V5.207H5.577Zm0-2.025H4.064V3.375H5.577ZM5.469,2.483a.2.2,0,0,1-.043-.121V.844A.2.2,0,0,1,5.469.723.157.157,0,0,1,5.577.675h.3a.157.157,0,0,1,.108.048.2.2,0,0,1,.043.121V2.362a.2.2,0,0,1-.043.121.157.157,0,0,1-.108.048h-.3c-.043,0-.065-.024-.108-.048ZM7.242,8.751H5.88V7.232H7.242Zm0-1.856H5.88V5.207H7.242Zm0-2.025H5.88V3.375H7.242Zm0,0" fill="#39c5c8"/>
</svg>
