<svg xmlns="http://www.w3.org/2000/svg" xmlns:xlink="http://www.w3.org/1999/xlink" width="20" height="20" viewBox="0 0 20 20">
  <defs>
    <clipPath id="clip-Mesa_de_trabajo_18">
      <rect width="20" height="20"/>
    </clipPath>
  </defs>
  <g id="Mesa_de_trabajo_18" data-name="Mesa de trabajo – 18" clip-path="url(#clip-Mesa_de_trabajo_18)">
    <path id="Trazado_10744" data-name="Trazado 10744" d="M6036.686,2013.438h-1.836a.612.612,0,0,1-.611-.612v-2.448a.612.612,0,0,1,.611-.613h.612v-1.223h-4.9v1.223h.612a.612.612,0,0,1,.612.613v2.448a.612.612,0,0,1-.612.612h-2.447a.612.612,0,0,1-.612-.612v-2.448a.612.612,0,0,1,.612-.613h.611v-1.223h-4.895v1.223h.611a.611.611,0,0,1,.611.613v2.448a.611.611,0,0,1-.611.612h-2.447a.611.611,0,0,1-.612-.612v-2.448a.612.612,0,0,1,.612-.613h.611v-1.835a.613.613,0,0,1,.613-.613h5.506v-1.339a5.507,5.507,0,1,1,1.224,0v1.339h5.508a.612.612,0,0,1,.611.613v1.835h.611a.612.612,0,0,1,.613.613v2.448a.612.612,0,0,1-.613.612Zm-1.224-1.224h1.224v-1.223h-1.224Zm-6.119,0h1.224v-1.223h-1.224Zm-6.119,0h1.225v-1.223h-1.225Zm4.9-8.035v.2a4.262,4.262,0,0,0,1.836.414h0a4.261,4.261,0,0,0,1.835-.414v-.2a1.836,1.836,0,1,0-3.671,0Zm4.833-.615a4.284,4.284,0,1,0-6,0,3.06,3.06,0,0,1,6,0Zm-4.833-4.281a1.836,1.836,0,1,1,1.836,1.836A1.838,1.838,0,0,1,6028.119,1999.283Zm1.224,0a.612.612,0,1,0,.612-.612A.613.613,0,0,0,6029.343,1999.283Z" transform="translate(-6019.9 -1994.201)" fill="#fff"/>
  </g>
</svg>
