<svg xmlns="http://www.w3.org/2000/svg" width="15.251" height="18.451" viewBox="0 0 15.251 18.451">
  <g id="Grupo_8568" data-name="Grupo 8568" transform="translate(-262.845 -382.418)">
    <path id="Trazado_2180" data-name="Trazado 2180" d="M104.337,64.626l-.223-.181a.688.688,0,0,1-.1-.974l1.753-2.156a.688.688,0,0,1,.974-.1l.223.181a.688.688,0,0,1,.1.974l-1.753,2.156A.7.7,0,0,1,104.337,64.626Z" transform="translate(169.411 325.138)" fill="#ff7c1c"/>
    <path id="Trazado_9709" data-name="Trazado 9709" d="M0,0H3.617V3.2H0Z" transform="translate(268.559 384.157)" fill="rgba(255,124,28,0.45)"/>
    <path id="Trazado_2181" data-name="Trazado 2181" d="M60.7,33.9h5.064a.7.7,0,0,1,.7.7v.751a.7.7,0,0,1-.7.7H60.7a.7.7,0,0,1-.7-.7V34.6A.7.7,0,0,1,60.7,33.9Z" transform="translate(207.168 348.518)" fill="#ff7c1c"/>
    <path id="Trazado_9710" data-name="Trazado 9710" d="M7.626,0A7.626,7.626,0,1,1,0,7.626,7.626,7.626,0,0,1,7.626,0Z" transform="translate(262.845 385.618)" fill="#ff7c1c"/>
    <line id="Línea_299" data-name="Línea 299" y1="5.506" transform="translate(270.228 389.223)" fill="none" stroke="#fff" stroke-linecap="round" stroke-miterlimit="10" stroke-width="1.5"/>
    <line id="Línea_367" data-name="Línea 367" x1="4.56" transform="translate(270.2 394.547)" fill="none" stroke="#fff" stroke-linecap="round" stroke-miterlimit="10" stroke-width="1.5"/>
  </g>
</svg>
