<svg xmlns="http://www.w3.org/2000/svg" xmlns:xlink="http://www.w3.org/1999/xlink" width="18" height="18" viewBox="0 0 18 18">
  <defs>
    <clipPath id="clip-Mesa_de_trabajo_10">
      <rect width="18" height="18"/>
    </clipPath>
  </defs>
  <g id="Mesa_de_trabajo_10" data-name="Mesa de trabajo – 10" clip-path="url(#clip-Mesa_de_trabajo_10)">
    <g id="settings" transform="translate(0.5 0.5)">
      <g id="Grupo_6065" data-name="Grupo 6065" transform="translate(0 0)">
        <path id="Trazado_9496" data-name="Trazado 9496" d="M16.174,6.735l-1.2-.2A6.756,6.756,0,0,0,14.5,5.371l.705-.986a1.05,1.05,0,0,0-.114-1.357L14.027,1.967a1.045,1.045,0,0,0-.744-.31,1.035,1.035,0,0,0-.609.2l-.99.705a6.686,6.686,0,0,0-1.2-.495l-.2-1.182A1.052,1.052,0,0,0,9.241,0h-1.5A1.052,1.052,0,0,0,6.7.881L6.5,2.091a6.59,6.59,0,0,0-1.157.488l-.979-.705A1.052,1.052,0,0,0,3,1.988L1.937,3.049a1.054,1.054,0,0,0-.114,1.357l.712,1a6.6,6.6,0,0,0-.474,1.164l-1.182.2A1.052,1.052,0,0,0,0,7.81v1.5a1.052,1.052,0,0,0,.88,1.04l1.211.207a6.59,6.59,0,0,0,.488,1.157l-.7.976a1.05,1.05,0,0,0,.114,1.357l1.061,1.061a1.045,1.045,0,0,0,.744.31,1.035,1.035,0,0,0,.609-.2l1-.712a6.737,6.737,0,0,0,1.125.463l.2,1.2a1.052,1.052,0,0,0,1.04.88h1.5a1.052,1.052,0,0,0,1.04-.88l.2-1.2a6.756,6.756,0,0,0,1.161-.481l.986.705a1.045,1.045,0,0,0,.613.2h0a1.045,1.045,0,0,0,.744-.31l1.061-1.061a1.054,1.054,0,0,0,.114-1.357l-.705-.99a6.708,6.708,0,0,0,.481-1.161l1.2-.2a1.052,1.052,0,0,0,.88-1.04v-1.5A1.039,1.039,0,0,0,16.174,6.735Zm-.082,2.539a.092.092,0,0,1-.078.093l-1.5.249a.478.478,0,0,0-.385.353,5.7,5.7,0,0,1-.62,1.492.481.481,0,0,0,.021.523l.88,1.239a.1.1,0,0,1-.011.121l-1.061,1.061a.09.09,0,0,1-.068.028.087.087,0,0,1-.053-.018l-1.236-.88a.481.481,0,0,0-.523-.021,5.7,5.7,0,0,1-1.492.62.473.473,0,0,0-.353.385l-.253,1.5a.092.092,0,0,1-.093.078h-1.5a.092.092,0,0,1-.093-.078l-.249-1.5a.478.478,0,0,0-.353-.385,5.919,5.919,0,0,1-1.46-.6.493.493,0,0,0-.242-.064.469.469,0,0,0-.278.089l-1.246.887a.106.106,0,0,1-.053.018.1.1,0,0,1-.068-.028L2.671,13.376a.1.1,0,0,1-.011-.121l.876-1.229a.488.488,0,0,0,.021-.527,5.647,5.647,0,0,1-.627-1.489.488.488,0,0,0-.385-.353L1.04,9.4A.092.092,0,0,1,.961,9.31V7.81a.092.092,0,0,1,.078-.093l1.485-.249a.481.481,0,0,0,.388-.356,5.7,5.7,0,0,1,.609-1.5A.475.475,0,0,0,3.5,5.1L2.61,3.851a.1.1,0,0,1,.011-.121L3.682,2.668A.09.09,0,0,1,3.75,2.64a.087.087,0,0,1,.053.018l1.229.876a.488.488,0,0,0,.527.021,5.647,5.647,0,0,1,1.489-.627A.488.488,0,0,0,7.4,2.544l.256-1.506A.092.092,0,0,1,7.749.959h1.5a.092.092,0,0,1,.093.078L9.59,2.522a.481.481,0,0,0,.356.388,5.78,5.78,0,0,1,1.528.627A.481.481,0,0,0,12,3.516l1.229-.883a.106.106,0,0,1,.053-.018.1.1,0,0,1,.068.028L14.408,3.7a.1.1,0,0,1,.011.121l-.88,1.236a.481.481,0,0,0-.021.523,5.7,5.7,0,0,1,.62,1.492.473.473,0,0,0,.385.353l1.5.253a.092.092,0,0,1,.078.093v1.5Z" transform="translate(0 -0.001)" fill="#099fce"/>
        <path id="Trazado_9497" data-name="Trazado 9497" d="M139.779,136a3.679,3.679,0,1,0,3.679,3.679A3.681,3.681,0,0,0,139.779,136Zm0,6.4a2.717,2.717,0,1,1,2.717-2.717A2.719,2.719,0,0,1,139.779,142.4Z" transform="translate(-131.253 -131.158)" fill="#099fce"/>
      </g>
    </g>
  </g>
</svg>
