<svg xmlns="http://www.w3.org/2000/svg" width="15.428" height="18.303" viewBox="0 0 15.428 18.303">
  <g id="Grupo_8458" data-name="Grupo 8458" transform="translate(-995 -2024)">
    <path id="Trazado_9476" data-name="Trazado 9476" d="M12.132,18.3H3.3a1.887,1.887,0,0,1-.877-.316A2.071,2.071,0,0,1,1.4,16.165V4.243H0V2.84H4.208V2.56a4.471,4.471,0,0,1,.035-.7A2.084,2.084,0,0,1,6.312,0h2.84a1.831,1.831,0,0,1,.736.14A2.015,2.015,0,0,1,11.22,1.929a6.19,6.19,0,0,1,0,.806v.07h4.208v1.4h-1.4v12.2a2.147,2.147,0,0,1-1.508,1.823A1.809,1.809,0,0,0,12.132,18.3ZM2.805,4.243V16.165a.682.682,0,0,0,.736.736h8.38a.682.682,0,0,0,.736-.736V4.243Zm2.84-1.438H9.853V2.034a.129.129,0,0,0-.035-.105A.676.676,0,0,0,9.152,1.4H6.276a.652.652,0,0,0-.666.561C5.61,2.244,5.645,2.525,5.645,2.805Z" transform="translate(995 2024)" fill="#39c5c8"/>
    <path id="Trazado_9477" data-name="Trazado 9477" d="M13.4,16.1v9.853H12V16.1Z" transform="translate(987.208 2012.9)" fill="#39c5c8"/>
    <path id="Trazado_9478" data-name="Trazado 9478" d="M20.1,16.1h1.4v9.853H20.1Z" transform="translate(981.948 2012.9)" fill="#39c5c8"/>
    <path id="Trazado_9479" data-name="Trazado 9479" d="M29.5,16.1v9.853H28.1V16.1Z" transform="translate(976.753 2012.9)" fill="#39c5c8"/>
  </g>
</svg>
