<svg id="Grupo_8467" data-name="Grupo 8467" xmlns="http://www.w3.org/2000/svg" width="63.075" height="63.458" viewBox="0 0 63.075 63.458">
  <circle id="Elipse_92" data-name="Elipse 92" cx="31.537" cy="31.537" r="31.537" fill="#d1d5e9"/>
  <g id="Grupo_3604" data-name="Grupo 3604" transform="translate(9.409 19.166)">
    <path id="Trazado_1049" data-name="Trazado 1049" d="M27,56.15V97.584a1.71,1.71,0,0,0,1.708,1.708H69.236a1.71,1.71,0,0,0,1.708-1.708V62.423a1.081,1.081,0,0,0-.314-.767l-5.82-6.133a1.2,1.2,0,0,0-.8-.348L28.15,55A1.16,1.16,0,0,0,27,56.15Z" transform="translate(-27 -55)" fill="#9a4eea"/>
    <g id="Grupo_3600" data-name="Grupo 3600" transform="translate(25.788 25.962)">
      <path id="Trazado_1050" data-name="Trazado 1050" d="M145.262,172.2a.767.767,0,1,1-.767.767A.75.75,0,0,1,145.262,172.2Z" transform="translate(-129.337 -157.32)" fill="#8166e2"/>
      <path id="Trazado_1051" data-name="Trazado 1051" d="M141.867,177.1a.7.7,0,0,1-.767-.7.829.829,0,0,1,.767-.8.773.773,0,0,1,.767.767A.723.723,0,0,1,141.867,177.1Z" transform="translate(-127.126 -159.535)" fill="#8166e2"/>
      <path id="Trazado_1052" data-name="Trazado 1052" d="M135.789,176.532a.679.679,0,0,1-.732.662.7.7,0,0,1-.662-.732.724.724,0,0,1,.732-.662A.752.752,0,0,1,135.789,176.532Z" transform="translate(-122.756 -159.665)" fill="#8166e2"/>
      <path id="Trazado_1053" data-name="Trazado 1053" d="M138.532,173.794a.754.754,0,0,1-.732-.7.7.7,0,1,1,1.394,0A.692.692,0,0,1,138.532,173.794Z" transform="translate(-124.976 -157.45)" fill="#8166e2"/>
      <path id="Trazado_1054" data-name="Trazado 1054" d="M141.9,169a.7.7,0,0,1,.7.7.723.723,0,0,1-.7.7.7.7,0,1,1,0-1.394Z" transform="translate(-127.191 -155.235)" fill="#8166e2"/>
      <path id="Trazado_1055" data-name="Trazado 1055" d="M145.3,166.929a.715.715,0,0,1,.035-1.429.715.715,0,0,1-.035,1.429Z" transform="translate(-129.406 -152.955)" fill="#8166e2"/>
      <path id="Trazado_1056" data-name="Trazado 1056" d="M147.9,176.792c-.244-.627-.07-1.115.488-1.289.418-.139.592,0,.592.418a2.61,2.61,0,0,1-.07.732.565.565,0,0,1-.8.314C148,176.9,147.969,176.827,147.9,176.792Z" transform="translate(-131.485 -159.437)" fill="#8166e2"/>
      <path id="Trazado_1057" data-name="Trazado 1057" d="M149.015,169.563v.418c.035.279-.1.314-.314.348a.781.781,0,0,1-.8-.767.812.812,0,0,1,.836-.767c.209.035.348.07.314.314A2.143,2.143,0,0,0,149.015,169.563Z" transform="translate(-131.556 -155.101)" fill="#8166e2"/>
      <path id="Trazado_1058" data-name="Trazado 1058" d="M149.075,162.857v.314c0,.348-.139.453-.488.383a.713.713,0,0,1-.592-.732.685.685,0,0,1,.7-.627c.244,0,.418.07.348.383A.68.68,0,0,1,149.075,162.857Z" transform="translate(-131.616 -150.8)" fill="#8166e2"/>
      <path id="Trazado_1059" data-name="Trazado 1059" d="M128.327,176.1a.627.627,0,1,1-.627.627A.6.6,0,0,1,128.327,176.1Z" transform="translate(-118.396 -159.861)" fill="#8166e2"/>
      <path id="Trazado_1060" data-name="Trazado 1060" d="M145.527,160.089a.625.625,0,0,1-.627-.627.655.655,0,0,1,.627-.662.625.625,0,0,1,.627.627A.633.633,0,0,1,145.527,160.089Z" transform="translate(-129.602 -148.59)" fill="#8166e2"/>
      <path id="Trazado_1061" data-name="Trazado 1061" d="M142.062,163.489a.679.679,0,0,1-.662-.627.655.655,0,0,1,.627-.662.625.625,0,0,1,.627.627A.587.587,0,0,1,142.062,163.489Z" transform="translate(-127.321 -150.805)" fill="#8166e2"/>
      <path id="Trazado_1062" data-name="Trazado 1062" d="M138.627,166.989a.625.625,0,0,1-.627-.627.655.655,0,0,1,.627-.662.625.625,0,0,1,.627.627A.655.655,0,0,1,138.627,166.989Z" transform="translate(-125.106 -153.085)" fill="#8166e2"/>
      <path id="Trazado_1063" data-name="Trazado 1063" d="M135.789,169.827a.625.625,0,0,1-.627.627.655.655,0,0,1-.662-.627.625.625,0,0,1,.627-.627A.633.633,0,0,1,135.789,169.827Z" transform="translate(-122.826 -155.365)" fill="#8166e2"/>
      <path id="Trazado_1064" data-name="Trazado 1064" d="M132.455,173.322a.625.625,0,0,1-.627.627.655.655,0,0,1-.627-.662.605.605,0,0,1,.662-.592A.6.6,0,0,1,132.455,173.322Z" transform="translate(-120.676 -157.64)" fill="#8166e2"/>
      <path id="Trazado_1065" data-name="Trazado 1065" d="M149.29,156.111v.209c0,.348-.139.453-.488.383a.6.6,0,0,1-.453-.767.59.59,0,0,1,.8-.418.512.512,0,0,1,.174.209C149.325,155.832,149.29,155.971,149.29,156.111Z" transform="translate(-131.832 -146.423)" fill="#8166e2"/>
      <path id="Trazado_1066" data-name="Trazado 1066" d="M146.215,152.758a.522.522,0,0,1-.523.558.559.559,0,0,1-.592-.558.558.558,0,0,1,1.115,0Z" transform="translate(-129.732 -144.29)" fill="#8166e2"/>
      <path id="Trazado_1067" data-name="Trazado 1067" d="M125.615,173.358a.522.522,0,0,1-.523.558.559.559,0,0,1-.592-.558.558.558,0,0,1,1.115,0Z" transform="translate(-116.311 -157.711)" fill="#8166e2"/>
      <path id="Trazado_1068" data-name="Trazado 1068" d="M121.558,177.48a.544.544,0,0,1-.558-.523.558.558,0,0,1,1.115,0A.568.568,0,0,1,121.558,177.48Z" transform="translate(-114.03 -160.056)" fill="#8166e2"/>
      <path id="Trazado_1069" data-name="Trazado 1069" d="M142.258,155.694a.559.559,0,0,1,.558.592.522.522,0,0,1-.558.523.559.559,0,0,1-.558-.592A.5.5,0,0,1,142.258,155.694Z" transform="translate(-127.517 -146.564)" fill="#8166e2"/>
      <path id="Trazado_1070" data-name="Trazado 1070" d="M138.858,160.215a.558.558,0,1,1,.558-.558A.6.6,0,0,1,138.858,160.215Z" transform="translate(-125.302 -148.785)" fill="#8166e2"/>
      <path id="Trazado_1071" data-name="Trazado 1071" d="M129.015,169.958a.558.558,0,1,1-.558-.558A.55.55,0,0,1,129.015,169.958Z" transform="translate(-118.526 -155.496)" fill="#8166e2"/>
      <path id="Trazado_1072" data-name="Trazado 1072" d="M135.915,163.158a.559.559,0,0,1-.592.558.522.522,0,0,1-.523-.558.559.559,0,0,1,.592-.558A.544.544,0,0,1,135.915,163.158Z" transform="translate(-123.021 -151.065)" fill="#8166e2"/>
      <path id="Trazado_1073" data-name="Trazado 1073" d="M132.415,166.558a.558.558,0,1,1-.558-.558A.53.53,0,0,1,132.415,166.558Z" transform="translate(-120.741 -153.28)" fill="#8166e2"/>
      <path id="Trazado_1074" data-name="Trazado 1074" d="M149.406,149.358c0,.488-.035.558-.348.558a.55.55,0,0,1-.558-.558.544.544,0,0,1,.523-.558C149.371,148.8,149.406,148.87,149.406,149.358Z" transform="translate(-131.947 -142.074)" fill="#8166e2"/>
      <path id="Trazado_1075" data-name="Trazado 1075" d="M122.176,170.088a.488.488,0,1,1-.488-.488A.476.476,0,0,1,122.176,170.088Z" transform="translate(-114.161 -155.626)" fill="#8166e2"/>
      <path id="Trazado_1076" data-name="Trazado 1076" d="M132.088,160.276a.488.488,0,1,1,.488-.488A.476.476,0,0,1,132.088,160.276Z" transform="translate(-120.936 -148.915)" fill="#8166e2"/>
      <path id="Trazado_1077" data-name="Trazado 1077" d="M135.388,155.8a.488.488,0,1,1-.488.488A.555.555,0,0,1,135.388,155.8Z" transform="translate(-123.087 -146.635)" fill="#8166e2"/>
      <path id="Trazado_1078" data-name="Trazado 1078" d="M128.588,163.676a.488.488,0,1,1,.488-.488A.457.457,0,0,1,128.588,163.676Z" transform="translate(-118.656 -151.13)" fill="#8166e2"/>
      <path id="Trazado_1079" data-name="Trazado 1079" d="M125.188,167.176a.488.488,0,1,1,.488-.488A.476.476,0,0,1,125.188,167.176Z" transform="translate(-116.441 -153.411)" fill="#8166e2"/>
      <path id="Trazado_1080" data-name="Trazado 1080" d="M139.376,152.888a.488.488,0,1,1-.488-.488A.476.476,0,0,1,139.376,152.888Z" transform="translate(-125.367 -144.42)" fill="#8166e2"/>
      <path id="Trazado_1081" data-name="Trazado 1081" d="M118.776,173.488a.488.488,0,1,1-.488-.488A.476.476,0,0,1,118.776,173.488Z" transform="translate(-111.946 -157.841)" fill="#8166e2"/>
      <path id="Trazado_1082" data-name="Trazado 1082" d="M114.888,176.5a.488.488,0,1,1-.488.488A.476.476,0,0,1,114.888,176.5Z" transform="translate(-109.73 -160.121)" fill="#8166e2"/>
      <path id="Trazado_1083" data-name="Trazado 1083" d="M142.288,149a.488.488,0,1,1-.488.488A.476.476,0,0,1,142.288,149Z" transform="translate(-127.582 -142.205)" fill="#8166e2"/>
      <path id="Trazado_1084" data-name="Trazado 1084" d="M146.276,145.988a.488.488,0,1,1-.488-.488A.476.476,0,0,1,146.276,145.988Z" transform="translate(-129.862 -139.924)" fill="#8166e2"/>
      <path id="Trazado_1085" data-name="Trazado 1085" d="M149.536,142.623c0,.383-.07.453-.348.453a.488.488,0,1,1,0-.976C149.467,142.1,149.536,142.2,149.536,142.623Z" transform="translate(-132.077 -137.709)" fill="#8166e2"/>
      <path id="Trazado_1086" data-name="Trazado 1086" d="M108.471,177.118a.432.432,0,0,1-.453.418.424.424,0,0,1-.418-.418.432.432,0,0,1,.453-.418A.4.4,0,0,1,108.471,177.118Z" transform="translate(-105.3 -160.252)" fill="#8166e2"/>
      <path id="Trazado_1087" data-name="Trazado 1087" d="M118.418,166.3a.432.432,0,0,1,.453.418.4.4,0,0,1-.418.418.432.432,0,0,1-.453-.418A.449.449,0,0,1,118.418,166.3Z" transform="translate(-112.076 -153.476)" fill="#8166e2"/>
      <path id="Trazado_1088" data-name="Trazado 1088" d="M122.271,163.311a.4.4,0,0,1-.418.418.432.432,0,0,1-.453-.418.385.385,0,0,1,.418-.418A.455.455,0,0,1,122.271,163.311Z" transform="translate(-114.291 -151.254)" fill="#8166e2"/>
      <path id="Trazado_1089" data-name="Trazado 1089" d="M142.928,142.753a.432.432,0,0,1-.453.418.386.386,0,0,1-.383-.453.419.419,0,1,1,.836.035Z" transform="translate(-127.769 -137.839)" fill="#8166e2"/>
      <path id="Trazado_1090" data-name="Trazado 1090" d="M125.671,159.918a.432.432,0,0,1-.453.418.424.424,0,0,1-.418-.418.432.432,0,0,1,.453-.418A.4.4,0,0,1,125.671,159.918Z" transform="translate(-116.506 -149.046)" fill="#8166e2"/>
      <path id="Trazado_1091" data-name="Trazado 1091" d="M146.271,139.318a.432.432,0,0,1-.453.418.424.424,0,0,1-.418-.418.432.432,0,0,1,.453-.418A.4.4,0,0,1,146.271,139.318Z" transform="translate(-129.927 -135.624)" fill="#8166e2"/>
      <path id="Trazado_1092" data-name="Trazado 1092" d="M139.371,146.218a.432.432,0,0,1-.453.418.424.424,0,0,1-.418-.418.432.432,0,0,1,.453-.418A.4.4,0,0,1,139.371,146.218Z" transform="translate(-125.432 -140.12)" fill="#8166e2"/>
      <path id="Trazado_1093" data-name="Trazado 1093" d="M129.071,156.418a.4.4,0,0,1-.418.418.432.432,0,0,1-.453-.418.4.4,0,0,1,.418-.418A.432.432,0,0,1,129.071,156.418Z" transform="translate(-118.721 -146.765)" fill="#8166e2"/>
      <path id="Trazado_1094" data-name="Trazado 1094" d="M115.018,170.571a.413.413,0,0,1-.418-.453.4.4,0,0,1,.418-.418.413.413,0,0,1,.418.453A.424.424,0,0,1,115.018,170.571Z" transform="translate(-109.861 -155.691)" fill="#8166e2"/>
      <path id="Trazado_1095" data-name="Trazado 1095" d="M111.553,173.2a.432.432,0,0,1,.418.453.386.386,0,0,1-.453.383.419.419,0,1,1,.035-.836Z" transform="translate(-107.58 -157.971)" fill="#8166e2"/>
      <path id="Trazado_1096" data-name="Trazado 1096" d="M135.618,149.2a.432.432,0,0,1,.418.453.424.424,0,0,1-.418.418.432.432,0,0,1-.418-.453A.4.4,0,0,1,135.618,149.2Z" transform="translate(-123.282 -142.335)" fill="#8166e2"/>
      <path id="Trazado_1097" data-name="Trazado 1097" d="M132.118,152.6a.4.4,0,0,1,.418.418.432.432,0,0,1-.418.453.4.4,0,0,1-.418-.418A.432.432,0,0,1,132.118,152.6Z" transform="translate(-121.002 -144.55)" fill="#8166e2"/>
      <path id="Trazado_1098" data-name="Trazado 1098" d="M139.532,139.383c-.035.209-.139.348-.348.348a.387.387,0,0,1-.383-.383.34.34,0,0,1,.383-.348A.382.382,0,0,1,139.532,139.383Z" transform="translate(-125.627 -135.689)" fill="#8166e2"/>
      <path id="Trazado_1099" data-name="Trazado 1099" d="M142.932,135.883c-.035.209-.139.348-.348.348a.387.387,0,0,1-.383-.383.34.34,0,0,1,.383-.348A.41.41,0,0,1,142.932,135.883Z" transform="translate(-127.843 -133.409)" fill="#8166e2"/>
      <path id="Trazado_1100" data-name="Trazado 1100" d="M115.083,163.832a.41.41,0,0,1-.383-.348.366.366,0,0,1,.383-.383.329.329,0,0,1,.348.348A.358.358,0,0,1,115.083,163.832Z" transform="translate(-109.926 -151.391)" fill="#8166e2"/>
      <path id="Trazado_1101" data-name="Trazado 1101" d="M129.289,149.683c-.035.209-.139.348-.348.348a.339.339,0,0,1-.348-.383.358.358,0,0,1,.383-.348A.414.414,0,0,1,129.289,149.683Z" transform="translate(-118.974 -142.4)" fill="#8166e2"/>
      <path id="Trazado_1102" data-name="Trazado 1102" d="M136.023,142.939a.358.358,0,0,1-.383.348.339.339,0,0,1-.348-.383.329.329,0,0,1,.383-.314C135.919,142.555,136.023,142.695,136.023,142.939Z" transform="translate(-123.339 -138.025)" fill="#8166e2"/>
      <path id="Trazado_1103" data-name="Trazado 1103" d="M112.023,166.883a.358.358,0,0,1-.383.348.339.339,0,0,1-.348-.383.358.358,0,0,1,.383-.348A.41.41,0,0,1,112.023,166.883Z" transform="translate(-107.702 -153.606)" fill="#8166e2"/>
      <path id="Trazado_1104" data-name="Trazado 1104" d="M118.673,159.69a.355.355,0,0,1,.314.383.339.339,0,0,1-.383.348.329.329,0,0,1-.314-.383C118.255,159.795,118.429,159.655,118.673,159.69Z" transform="translate(-112.261 -149.166)" fill="#8166e2"/>
      <path id="Trazado_1105" data-name="Trazado 1105" d="M125.383,152.8a.358.358,0,0,1,.348.383.339.339,0,0,1-.383.348.366.366,0,0,1,.035-.732Z" transform="translate(-116.636 -144.68)" fill="#8166e2"/>
      <path id="Trazado_1106" data-name="Trazado 1106" d="M104.818,173.4a.344.344,0,0,1,.314.348.339.339,0,0,1-.383.348.358.358,0,0,1-.348-.383C104.4,173.539,104.574,173.4,104.818,173.4Z" transform="translate(-103.215 -158.102)" fill="#8166e2"/>
      <path id="Trazado_1107" data-name="Trazado 1107" d="M108.248,170.689c-.209-.035-.348-.139-.348-.348a.339.339,0,0,1,.383-.348.358.358,0,0,1,.348.383A.351.351,0,0,1,108.248,170.689Z" transform="translate(-105.495 -155.878)" fill="#8166e2"/>
      <path id="Trazado_1108" data-name="Trazado 1108" d="M101.348,177.6c-.209-.035-.348-.139-.348-.348a.329.329,0,0,1,.348-.348.387.387,0,0,1,.383.383A.379.379,0,0,1,101.348,177.6Z" transform="translate(-101 -160.382)" fill="#8166e2"/>
      <path id="Trazado_1109" data-name="Trazado 1109" d="M121.983,156.2a.358.358,0,0,1,.348.383.339.339,0,0,1-.383.348.358.358,0,0,1-.348-.383C121.6,156.339,121.739,156.235,121.983,156.2Z" transform="translate(-114.421 -146.896)" fill="#8166e2"/>
      <path id="Trazado_1110" data-name="Trazado 1110" d="M132.623,146.283a.358.358,0,0,1-.383.348.339.339,0,0,1-.348-.383.358.358,0,0,1,.383-.348C132.484,145.9,132.589,146.039,132.623,146.283Z" transform="translate(-121.124 -140.185)" fill="#8166e2"/>
      <path id="Trazado_1111" data-name="Trazado 1111" d="M149.087,135.6a6.064,6.064,0,0,1,.453.523c.139.139,0,.209-.1.244a.387.387,0,0,1-.488-.174A.394.394,0,0,1,149.087,135.6Z" transform="translate(-132.186 -133.474)" fill="#8166e2"/>
      <path id="Trazado_1112" data-name="Trazado 1112" d="M145.95,179.066l.174.174c-.418.035-.836.07-1.324.07a.787.787,0,0,1,.836-.348Z" transform="translate(-129.537 -161.712)" fill="#8166e2"/>
      <path id="Trazado_1113" data-name="Trazado 1113" d="M101.636,169.935c.07.1.209.244.209.348a.378.378,0,0,1-.279.279c-.209.035-.314-.1-.279-.314.035-.139.139-.209.244-.348C101.532,169.935,101.566,169.935,101.636,169.935Z" transform="translate(-101.183 -155.821)" fill="#8166e2"/>
      <path id="Trazado_1114" data-name="Trazado 1114" d="M145.909,132.2c.139.174.279.348.488.592-.174.035-.314.139-.453.1-.1-.035-.244-.139-.244-.244a2.751,2.751,0,0,1,.1-.453Z" transform="translate(-130.123 -131.259)" fill="#8166e2"/>
      <path id="Trazado_1115" data-name="Trazado 1115" d="M104.948,166.6c.07.1.244.244.209.348,0,.1-.174.209-.279.314-.1-.1-.279-.174-.279-.279s.139-.244.209-.348A.264.264,0,0,1,104.948,166.6Z" transform="translate(-103.345 -153.671)" fill="#8166e2"/>
      <path id="Trazado_1116" data-name="Trazado 1116" d="M135.809,136.362c-.07-.1-.209-.244-.209-.348s.174-.209.279-.314c.1.1.279.209.279.314s-.139.209-.209.348Z" transform="translate(-123.543 -133.539)" fill="#8166e2"/>
      <path id="Trazado_1117" data-name="Trazado 1117" d="M132.548,139.035c.07.1.209.244.209.348a.713.713,0,0,1-.279.279c-.1-.1-.244-.209-.279-.314,0-.1.139-.209.209-.348C132.444,139.035,132.479,139.035,132.548,139.035Z" transform="translate(-121.327 -135.689)" fill="#8166e2"/>
      <path id="Trazado_1118" data-name="Trazado 1118" d="M108.448,163.1c.07.1.209.244.209.348s-.174.209-.279.314c-.1-.1-.279-.209-.279-.314s.139-.209.209-.348Z" transform="translate(-105.626 -151.391)" fill="#8166e2"/>
      <path id="Trazado_1119" data-name="Trazado 1119" d="M129.262,143.048c-.1.07-.244.209-.348.209s-.209-.174-.314-.279c.1-.1.209-.279.314-.279s.209.139.348.209Z" transform="translate(-118.982 -138.1)" fill="#8166e2"/>
      <path id="Trazado_1120" data-name="Trazado 1120" d="M112.127,160.248c-.1.07-.244.209-.348.209a.713.713,0,0,1-.279-.279c.1-.1.209-.244.314-.279.1,0,.209.139.348.209A.263.263,0,0,0,112.127,160.248Z" transform="translate(-107.841 -149.306)" fill="#8166e2"/>
      <path id="Trazado_1121" data-name="Trazado 1121" d="M139.627,132.748c-.1.07-.244.244-.348.209a.279.279,0,0,1,0-.558c.1,0,.244.139.348.209Z" transform="translate(-125.758 -131.389)" fill="#8166e2"/>
      <path id="Trazado_1122" data-name="Trazado 1122" d="M115.348,156.3c.07.1.209.244.209.348s-.174.209-.279.314c-.1-.1-.279-.174-.279-.314,0-.1.139-.244.209-.348Z" transform="translate(-110.121 -146.961)" fill="#8166e2"/>
      <path id="Trazado_1123" data-name="Trazado 1123" d="M125.648,146c.07.1.209.244.209.348s-.174.209-.279.314c-.1-.1-.279-.174-.279-.314,0-.1.139-.244.209-.348Z" transform="translate(-116.832 -140.25)" fill="#8166e2"/>
      <path id="Trazado_1124" data-name="Trazado 1124" d="M119.027,153.348c-.1.07-.244.244-.348.209a.279.279,0,1,1,0-.558c.1,0,.244.139.348.209Z" transform="translate(-112.336 -144.811)" fill="#8166e2"/>
      <path id="Trazado_1125" data-name="Trazado 1125" d="M122.009,150.227c-.07-.1-.209-.244-.209-.348a.279.279,0,1,1,.558,0c0,.1-.139.244-.209.348Z" transform="translate(-114.552 -142.596)" fill="#8166e2"/>
      <path id="Trazado_1126" data-name="Trazado 1126" d="M139.345,179.411H138.3A.653.653,0,0,1,139.345,179.411Z" transform="translate(-125.302 -161.848)" fill="#8166e2"/>
      <path id="Trazado_1127" data-name="Trazado 1127" d="M129.392,136.244c-.174.1-.279.244-.383.209-.1,0-.209-.139-.209-.244a.314.314,0,0,1,.209-.209C129.148,136,129.218,136.1,129.392,136.244Z" transform="translate(-119.112 -133.735)" fill="#8166e2"/>
      <path id="Trazado_1128" data-name="Trazado 1128" d="M125.6,139.992c-.1-.174-.244-.279-.209-.383,0-.1.139-.209.244-.209a.314.314,0,0,1,.209.209C125.843,139.714,125.738,139.818,125.6,139.992Z" transform="translate(-116.887 -135.95)" fill="#8166e2"/>
      <path id="Trazado_1129" data-name="Trazado 1129" d="M101.544,163.1c.1.174.244.279.244.348,0,.1-.139.174-.244.244-.07-.07-.209-.139-.244-.244C101.3,163.379,101.439,163.274,101.544,163.1Z" transform="translate(-101.195 -151.391)" fill="#8166e2"/>
      <path id="Trazado_1130" data-name="Trazado 1130" d="M105.1,160.658c-.1-.174-.244-.279-.209-.348,0-.1.139-.209.244-.209a.314.314,0,0,1,.209.209C105.308,160.379,105.2,160.483,105.1,160.658Z" transform="translate(-103.531 -149.436)" fill="#8166e2"/>
      <path id="Trazado_1131" data-name="Trazado 1131" d="M132.544,132.2c.1.174.244.279.209.383,0,.1-.139.209-.244.209a.314.314,0,0,1-.209-.209C132.3,132.444,132.4,132.374,132.544,132.2Z" transform="translate(-121.393 -131.259)" fill="#8166e2"/>
      <path id="Trazado_1132" data-name="Trazado 1132" d="M122.244,143.458c-.1-.174-.244-.279-.244-.348,0-.1.139-.209.244-.209a.314.314,0,0,1,.209.209C122.453,143.179,122.348,143.283,122.244,143.458Z" transform="translate(-114.682 -138.23)" fill="#8166e2"/>
      <path id="Trazado_1133" data-name="Trazado 1133" d="M108.544,156.2c.1.174.209.279.209.383a.353.353,0,0,1-.244.209.306.306,0,0,1-.209-.244C108.3,156.479,108.4,156.374,108.544,156.2Z" transform="translate(-105.756 -146.896)" fill="#8166e2"/>
      <path id="Trazado_1134" data-name="Trazado 1134" d="M118.8,145.9c.1.174.244.279.244.348,0,.1-.139.209-.244.209a.314.314,0,0,1-.209-.209C118.555,146.179,118.694,146.074,118.8,145.9Z" transform="translate(-112.457 -140.185)" fill="#8166e2"/>
      <path id="Trazado_1135" data-name="Trazado 1135" d="M111.9,153.692c-.1-.174-.244-.279-.209-.383,0-.1.139-.209.244-.209a.314.314,0,0,1,.209.209C112.143,153.448,112,153.518,111.9,153.692Z" transform="translate(-107.961 -144.876)" fill="#8166e2"/>
      <path id="Trazado_1136" data-name="Trazado 1136" d="M115.344,150.358c-.1-.174-.244-.279-.244-.348,0-.1.139-.209.244-.209a.314.314,0,0,1,.209.209C115.553,150.079,115.448,150.183,115.344,150.358Z" transform="translate(-110.186 -142.726)" fill="#8166e2"/>
      <path id="Trazado_1137" data-name="Trazado 1137" d="M142.37,129.5c.174.035.383.07.558.1a.209.209,0,0,0,.035.139c-.139.035-.279.139-.383.139-.1-.035-.174-.174-.279-.244A.264.264,0,0,1,142.37,129.5Z" transform="translate(-127.908 -129.5)" fill="#8166e2"/>
      <path id="Trazado_1138" data-name="Trazado 1138" d="M132.571,179.558H131.7C131.944,179.314,132.223,179.314,132.571,179.558Z" transform="translate(-121.002 -161.995)" fill="#8166e2"/>
      <path id="Trazado_1139" data-name="Trazado 1139" d="M135.67,129.6h.453c0,.035.035.035.035.07-.1.07-.174.209-.279.209s-.174-.1-.279-.174C135.6,129.67,135.635,129.635,135.67,129.6Z" transform="translate(-123.543 -129.565)" fill="#8166e2"/>
      <path id="Trazado_1140" data-name="Trazado 1140" d="M101.888,156.874c-.139.1-.209.174-.279.174s-.139-.1-.209-.174c.07-.07.1-.174.174-.174C101.679,156.7,101.748,156.8,101.888,156.874Z" transform="translate(-101.261 -147.221)" fill="#8166e2"/>
      <path id="Trazado_1141" data-name="Trazado 1141" d="M105.074,153.1c.1.1.209.209.174.244,0,.07-.1.139-.174.174-.035,0-.174-.1-.174-.139A3.209,3.209,0,0,1,105.074,153.1Z" transform="translate(-103.541 -144.876)" fill="#8166e2"/>
      <path id="Trazado_1142" data-name="Trazado 1142" d="M108.753,150.122c-.139.07-.209.174-.279.174s-.139-.1-.174-.174a.245.245,0,0,1,.174-.139C108.579,149.948,108.648,150.018,108.753,150.122Z" transform="translate(-105.756 -142.839)" fill="#8166e2"/>
      <path id="Trazado_1143" data-name="Trazado 1143" d="M112.318,146.574c-.139.1-.209.174-.244.174-.07,0-.139-.1-.174-.174,0-.035.1-.174.139-.174C112.109,146.435,112.179,146.5,112.318,146.574Z" transform="translate(-108.102 -140.511)" fill="#8166e2"/>
      <path id="Trazado_1144" data-name="Trazado 1144" d="M115.474,143.518c-.1-.139-.174-.209-.174-.244,0-.07.1-.139.174-.174.035,0,.174.1.174.139C115.648,143.309,115.544,143.379,115.474,143.518Z" transform="translate(-110.317 -138.361)" fill="#8166e2"/>
      <path id="Trazado_1145" data-name="Trazado 1145" d="M118.874,139.953c-.07-.139-.174-.209-.174-.279s.1-.139.174-.174a.245.245,0,0,1,.139.174C119.048,139.779,118.944,139.848,118.874,139.953Z" transform="translate(-112.532 -136.015)" fill="#8166e2"/>
      <path id="Trazado_1146" data-name="Trazado 1146" d="M122.618,136.274c-.1.1-.209.209-.244.174-.07,0-.139-.1-.174-.174,0-.035.1-.174.139-.174C122.409,136.1,122.479,136.2,122.618,136.274Z" transform="translate(-114.812 -133.8)" fill="#8166e2"/>
      <path id="Trazado_1147" data-name="Trazado 1147" d="M125.953,132.926c-.139.07-.209.174-.279.174s-.139-.1-.174-.174a.245.245,0,0,1,.174-.139C125.779,132.752,125.848,132.857,125.953,132.926Z" transform="translate(-116.962 -131.637)" fill="#8166e2"/>
    </g>
    <g id="Grupo_3601" data-name="Grupo 3601" transform="translate(0.308 0.209)">
      <path id="Trazado_1148" data-name="Trazado 1148" d="M31.067,60.433a.767.767,0,1,1,.767-.767A.773.773,0,0,1,31.067,60.433Z" transform="translate(-29.458 -57.75)" fill="#8166e2"/>
      <path id="Trazado_1149" data-name="Trazado 1149" d="M34.467,55.6a.7.7,0,0,1,.767.7.829.829,0,0,1-.767.8.773.773,0,0,1-.767-.767A.7.7,0,0,1,34.467,55.6Z" transform="translate(-31.673 -55.6)" fill="#8166e2"/>
      <path id="Trazado_1150" data-name="Trazado 1150" d="M40.8,56.357a.679.679,0,0,1,.732-.662.7.7,0,0,1,.662.732.7.7,0,1,1-1.394-.07Z" transform="translate(-36.295 -55.66)" fill="#8166e2"/>
      <path id="Trazado_1151" data-name="Trazado 1151" d="M38.057,59.1a.754.754,0,0,1,.732.7.7.7,0,0,1-1.394,0A.669.669,0,0,1,38.057,59.1Z" transform="translate(-34.079 -57.88)" fill="#8166e2"/>
      <path id="Trazado_1152" data-name="Trazado 1152" d="M34.6,63.894a.7.7,0,0,1-.7-.7.723.723,0,0,1,.7-.7.7.7,0,0,1,.7.7A.678.678,0,0,1,34.6,63.894Z" transform="translate(-31.804 -60.095)" fill="#8166e2"/>
      <path id="Trazado_1153" data-name="Trazado 1153" d="M31.2,66a.715.715,0,0,1-.035,1.429A.715.715,0,0,1,31.2,66Z" transform="translate(-29.589 -62.371)" fill="#8166e2"/>
      <path id="Trazado_1154" data-name="Trazado 1154" d="M29.08,55.863c.244.627.07,1.115-.488,1.289-.418.139-.592,0-.592-.418A2.609,2.609,0,0,1,28.07,56a.565.565,0,0,1,.8-.314C28.976,55.723,29.011,55.793,29.08,55.863Z" transform="translate(-27.96 -55.619)" fill="#8166e2"/>
      <path id="Trazado_1155" data-name="Trazado 1155" d="M27.925,63.063v-.418c-.035-.279.1-.314.314-.348a.781.781,0,0,1,.8.767.812.812,0,0,1-.836.767c-.209-.035-.348-.07-.314-.314A1,1,0,0,0,27.925,63.063Z" transform="translate(-27.885 -59.961)" fill="#8166e2"/>
      <path id="Trazado_1156" data-name="Trazado 1156" d="M28,70.059v-.314c0-.348.139-.453.488-.383a.713.713,0,0,1,.592.732.685.685,0,0,1-.7.627c-.244,0-.418-.07-.348-.383C28.035,70.268,28,70.163,28,70.059Z" transform="translate(-27.96 -64.553)" fill="#8166e2"/>
      <path id="Trazado_1157" data-name="Trazado 1157" d="M48.427,57.155a.627.627,0,1,1,.627-.627A.6.6,0,0,1,48.427,57.155Z" transform="translate(-40.86 -55.795)" fill="#8166e2"/>
      <path id="Trazado_1158" data-name="Trazado 1158" d="M31.327,73a.625.625,0,0,1,.627.627.655.655,0,0,1-.627.662.625.625,0,0,1-.627-.627A.655.655,0,0,1,31.327,73Z" transform="translate(-29.719 -66.936)" fill="#8166e2"/>
      <path id="Trazado_1159" data-name="Trazado 1159" d="M34.787,69.6a.679.679,0,0,1,.662.627.655.655,0,0,1-.627.662.625.625,0,0,1-.627-.627A.587.587,0,0,1,34.787,69.6Z" transform="translate(-31.994 -64.721)" fill="#8166e2"/>
      <path id="Trazado_1160" data-name="Trazado 1160" d="M38.127,66.2a.625.625,0,0,1,.627.627.655.655,0,0,1-.627.662.625.625,0,0,1-.627-.627A.655.655,0,0,1,38.127,66.2Z" transform="translate(-34.149 -62.506)" fill="#8166e2"/>
      <path id="Trazado_1161" data-name="Trazado 1161" d="M41,63.327a.625.625,0,0,1,.627-.627.655.655,0,0,1,.662.627.625.625,0,0,1-.627.627A.633.633,0,0,1,41,63.327Z" transform="translate(-36.43 -60.226)" fill="#8166e2"/>
      <path id="Trazado_1162" data-name="Trazado 1162" d="M44.4,59.927a.625.625,0,0,1,.627-.627.655.655,0,0,1,.627.662.605.605,0,0,1-.662.592A.643.643,0,0,1,44.4,59.927Z" transform="translate(-38.645 -58.011)" fill="#8166e2"/>
      <path id="Trazado_1163" data-name="Trazado 1163" d="M27.935,77.154v-.209c0-.348.139-.453.488-.383a.6.6,0,0,1,.453.767.59.59,0,0,1-.8.418.512.512,0,0,1-.174-.209A1.563,1.563,0,0,0,27.935,77.154Z" transform="translate(-27.895 -69.244)" fill="#8166e2"/>
      <path id="Trazado_1164" data-name="Trazado 1164" d="M30.9,80.658a.522.522,0,0,1,.523-.558.559.559,0,0,1,.592.558.558.558,0,0,1-1.115,0Z" transform="translate(-29.849 -71.562)" fill="#8166e2"/>
      <path id="Trazado_1165" data-name="Trazado 1165" d="M51.5,60.058a.522.522,0,0,1,.523-.558.559.559,0,0,1,.592.558.558.558,0,0,1-1.115,0Z" transform="translate(-43.271 -58.141)" fill="#8166e2"/>
      <path id="Trazado_1166" data-name="Trazado 1166" d="M55.458,56.1a.544.544,0,0,1,.558.523.558.558,0,1,1-1.115,0A.543.543,0,0,1,55.458,56.1Z" transform="translate(-45.486 -55.926)" fill="#8166e2"/>
      <path id="Trazado_1167" data-name="Trazado 1167" d="M34.858,77.815a.559.559,0,0,1-.558-.592.522.522,0,0,1,.558-.523.559.559,0,0,1,.558.592A.544.544,0,0,1,34.858,77.815Z" transform="translate(-32.064 -69.347)" fill="#8166e2"/>
      <path id="Trazado_1168" data-name="Trazado 1168" d="M38.258,73.2a.558.558,0,1,1-.558.558A.6.6,0,0,1,38.258,73.2Z" transform="translate(-34.28 -67.067)" fill="#8166e2"/>
      <path id="Trazado_1169" data-name="Trazado 1169" d="M48.1,63.458a.558.558,0,1,1,.558.558A.53.53,0,0,1,48.1,63.458Z" transform="translate(-41.055 -60.356)" fill="#8166e2"/>
      <path id="Trazado_1170" data-name="Trazado 1170" d="M41.2,70.358a.559.559,0,0,1,.592-.558.522.522,0,0,1,.523.558.559.559,0,0,1-.592.558A.522.522,0,0,1,41.2,70.358Z" transform="translate(-36.56 -64.852)" fill="#8166e2"/>
      <path id="Trazado_1171" data-name="Trazado 1171" d="M44.6,66.958a.558.558,0,1,1,.558.558A.573.573,0,0,1,44.6,66.958Z" transform="translate(-38.775 -62.636)" fill="#8166e2"/>
      <path id="Trazado_1172" data-name="Trazado 1172" d="M28,84.158c0-.488.035-.558.348-.558a.55.55,0,0,1,.558.558.544.544,0,0,1-.523.558C28.07,84.68,28,84.611,28,84.158Z" transform="translate(-27.96 -73.843)" fill="#8166e2"/>
      <path id="Trazado_1173" data-name="Trazado 1173" d="M55.1,63.688a.488.488,0,1,1,.488.488A.524.524,0,0,1,55.1,63.688Z" transform="translate(-45.616 -60.552)" fill="#8166e2"/>
      <path id="Trazado_1174" data-name="Trazado 1174" d="M45.288,73.4a.488.488,0,1,1-.488.488A.5.5,0,0,1,45.288,73.4Z" transform="translate(-38.905 -67.197)" fill="#8166e2"/>
      <path id="Trazado_1175" data-name="Trazado 1175" d="M41.888,77.876a.488.488,0,1,1,.488-.488A.476.476,0,0,1,41.888,77.876Z" transform="translate(-36.69 -69.477)" fill="#8166e2"/>
      <path id="Trazado_1176" data-name="Trazado 1176" d="M48.788,70a.488.488,0,1,1-.488.488A.476.476,0,0,1,48.788,70Z" transform="translate(-41.186 -64.982)" fill="#8166e2"/>
      <path id="Trazado_1177" data-name="Trazado 1177" d="M52.188,66.6a.488.488,0,1,1-.488.488A.476.476,0,0,1,52.188,66.6Z" transform="translate(-43.401 -62.767)" fill="#8166e2"/>
      <path id="Trazado_1178" data-name="Trazado 1178" d="M38,80.788a.488.488,0,1,1,.488.488A.476.476,0,0,1,38,80.788Z" transform="translate(-34.475 -71.693)" fill="#8166e2"/>
      <path id="Trazado_1179" data-name="Trazado 1179" d="M58.6,60.188a.488.488,0,1,1,.488.488A.476.476,0,0,1,58.6,60.188Z" transform="translate(-47.896 -58.271)" fill="#8166e2"/>
      <path id="Trazado_1180" data-name="Trazado 1180" d="M62.488,57.276a.488.488,0,1,1,.488-.488A.476.476,0,0,1,62.488,57.276Z" transform="translate(-50.111 -56.056)" fill="#8166e2"/>
      <path id="Trazado_1181" data-name="Trazado 1181" d="M34.988,84.676a.488.488,0,1,1,.488-.488A.476.476,0,0,1,34.988,84.676Z" transform="translate(-32.195 -73.908)" fill="#8166e2"/>
      <path id="Trazado_1182" data-name="Trazado 1182" d="M31.1,87.688a.488.488,0,1,1,.488.488A.476.476,0,0,1,31.1,87.688Z" transform="translate(-29.98 -76.188)" fill="#8166e2"/>
      <path id="Trazado_1183" data-name="Trazado 1183" d="M28,91.153c0-.383.07-.453.348-.453a.488.488,0,1,1,0,.976C28.07,91.641,28,91.536,28,91.153Z" transform="translate(-27.96 -78.468)" fill="#8166e2"/>
      <path id="Trazado_1184" data-name="Trazado 1184" d="M69.1,56.818a.432.432,0,0,1,.453-.418.424.424,0,0,1,.418.418.432.432,0,0,1-.453.418A.385.385,0,0,1,69.1,56.818Z" transform="translate(-54.737 -56.121)" fill="#8166e2"/>
      <path id="Trazado_1185" data-name="Trazado 1185" d="M59.153,67.636a.432.432,0,0,1-.453-.418.4.4,0,0,1,.418-.418.432.432,0,0,1,.453.418A.424.424,0,0,1,59.153,67.636Z" transform="translate(-47.961 -62.897)" fill="#8166e2"/>
      <path id="Trazado_1186" data-name="Trazado 1186" d="M55.3,70.618a.4.4,0,0,1,.418-.418.432.432,0,0,1,.453.418.385.385,0,0,1-.418.418A.413.413,0,0,1,55.3,70.618Z" transform="translate(-45.746 -65.112)" fill="#8166e2"/>
      <path id="Trazado_1187" data-name="Trazado 1187" d="M34.7,91.218a.432.432,0,0,1,.453-.418.386.386,0,0,1,.383.453.432.432,0,0,1-.453.418A.453.453,0,0,1,34.7,91.218Z" transform="translate(-32.325 -78.533)" fill="#8166e2"/>
      <path id="Trazado_1188" data-name="Trazado 1188" d="M51.9,74.018a.432.432,0,0,1,.453-.418.424.424,0,0,1,.418.418.432.432,0,0,1-.453.418A.4.4,0,0,1,51.9,74.018Z" transform="translate(-43.531 -67.327)" fill="#8166e2"/>
      <path id="Trazado_1189" data-name="Trazado 1189" d="M31.3,94.618a.432.432,0,0,1,.453-.418.424.424,0,0,1,.418.418.432.432,0,0,1-.453.418A.4.4,0,0,1,31.3,94.618Z" transform="translate(-30.11 -80.749)" fill="#8166e2"/>
      <path id="Trazado_1190" data-name="Trazado 1190" d="M38.1,87.818a.432.432,0,0,1,.453-.418.424.424,0,0,1,.418.418.432.432,0,0,1-.453.418A.424.424,0,0,1,38.1,87.818Z" transform="translate(-34.54 -76.318)" fill="#8166e2"/>
      <path id="Trazado_1191" data-name="Trazado 1191" d="M48.5,77.518a.4.4,0,0,1,.418-.418.432.432,0,0,1,.453.418.4.4,0,0,1-.418.418A.413.413,0,0,1,48.5,77.518Z" transform="translate(-41.316 -69.608)" fill="#8166e2"/>
      <path id="Trazado_1192" data-name="Trazado 1192" d="M62.618,63.3a.413.413,0,0,1,.418.453.4.4,0,0,1-.418.418.413.413,0,0,1-.418-.453A.4.4,0,0,1,62.618,63.3Z" transform="translate(-50.242 -60.617)" fill="#8166e2"/>
      <path id="Trazado_1193" data-name="Trazado 1193" d="M66.018,60.728a.432.432,0,0,1-.418-.453.386.386,0,0,1,.453-.383.432.432,0,0,1,.418.453A.453.453,0,0,1,66.018,60.728Z" transform="translate(-52.457 -58.393)" fill="#8166e2"/>
      <path id="Trazado_1194" data-name="Trazado 1194" d="M42.018,84.771a.432.432,0,0,1-.418-.453.424.424,0,0,1,.418-.418.432.432,0,0,1,.418.453A.4.4,0,0,1,42.018,84.771Z" transform="translate(-36.82 -74.038)" fill="#8166e2"/>
      <path id="Trazado_1195" data-name="Trazado 1195" d="M45.418,81.271A.4.4,0,0,1,45,80.853a.432.432,0,0,1,.418-.453.4.4,0,0,1,.418.418A.413.413,0,0,1,45.418,81.271Z" transform="translate(-39.036 -71.758)" fill="#8166e2"/>
      <path id="Trazado_1196" data-name="Trazado 1196" d="M38.3,94.848c.035-.209.139-.348.348-.348a.387.387,0,0,1,.383.383.34.34,0,0,1-.383.348A.41.41,0,0,1,38.3,94.848Z" transform="translate(-34.67 -80.944)" fill="#8166e2"/>
      <path id="Trazado_1197" data-name="Trazado 1197" d="M34.9,98.248c.035-.209.139-.348.348-.348a.387.387,0,0,1,.383.383.34.34,0,0,1-.383.348A.38.38,0,0,1,34.9,98.248Z" transform="translate(-32.455 -83.159)" fill="#8166e2"/>
      <path id="Trazado_1198" data-name="Trazado 1198" d="M62.748,70.4a.41.41,0,0,1,.383.348.366.366,0,0,1-.383.383.329.329,0,0,1-.348-.348A.34.34,0,0,1,62.748,70.4Z" transform="translate(-50.372 -65.242)" fill="#8166e2"/>
      <path id="Trazado_1199" data-name="Trazado 1199" d="M48.6,84.448c.035-.209.139-.348.348-.348a.339.339,0,0,1,.348.383.358.358,0,0,1-.383.348C48.739,84.832,48.635,84.692,48.6,84.448Z" transform="translate(-41.381 -74.168)" fill="#8166e2"/>
      <path id="Trazado_1200" data-name="Trazado 1200" d="M41.8,91.348A.358.358,0,0,1,42.183,91a.339.339,0,0,1,.348.383.329.329,0,0,1-.383.314A.313.313,0,0,1,41.8,91.348Z" transform="translate(-36.951 -78.664)" fill="#8166e2"/>
      <path id="Trazado_1201" data-name="Trazado 1201" d="M65.8,67.248a.358.358,0,0,1,.383-.348.339.339,0,0,1,.348.383.358.358,0,0,1-.383.348A.34.34,0,0,1,65.8,67.248Z" transform="translate(-52.587 -62.962)" fill="#8166e2"/>
      <path id="Trazado_1202" data-name="Trazado 1202" d="M59.214,74.523a.355.355,0,0,1-.314-.383.339.339,0,0,1,.383-.348.329.329,0,0,1,.314.383C59.632,74.384,59.458,74.523,59.214,74.523Z" transform="translate(-48.092 -67.449)" fill="#8166e2"/>
      <path id="Trazado_1203" data-name="Trazado 1203" d="M52.448,81.423a.358.358,0,0,1-.348-.383.339.339,0,0,1,.383-.348.358.358,0,0,1,.348.383A.41.41,0,0,1,52.448,81.423Z" transform="translate(-43.661 -71.945)" fill="#8166e2"/>
      <path id="Trazado_1204" data-name="Trazado 1204" d="M73.014,60.789a.344.344,0,0,1-.314-.348.339.339,0,0,1,.383-.348.358.358,0,0,1,.348.383A.365.365,0,0,1,73.014,60.789Z" transform="translate(-57.083 -58.523)" fill="#8166e2"/>
      <path id="Trazado_1205" data-name="Trazado 1205" d="M69.583,63.5c.209.035.348.139.348.348a.339.339,0,0,1-.383.348.358.358,0,0,1-.348-.383A.379.379,0,0,1,69.583,63.5Z" transform="translate(-54.802 -60.747)" fill="#8166e2"/>
      <path id="Trazado_1206" data-name="Trazado 1206" d="M76.483,56.6c.209.035.348.139.348.348a.329.329,0,0,1-.348.348.387.387,0,0,1-.383-.383C76.135,56.739,76.239,56.635,76.483,56.6Z" transform="translate(-59.298 -56.252)" fill="#8166e2"/>
      <path id="Trazado_1207" data-name="Trazado 1207" d="M55.848,77.923a.358.358,0,0,1-.348-.383.339.339,0,0,1,.383-.348.366.366,0,1,1-.035.732Z" transform="translate(-45.877 -69.664)" fill="#8166e2"/>
      <path id="Trazado_1208" data-name="Trazado 1208" d="M45.2,87.848a.358.358,0,0,1,.383-.348.339.339,0,0,1,.348.383.358.358,0,0,1-.383.348C45.3,88.232,45.2,88.092,45.2,87.848Z" transform="translate(-39.166 -76.383)" fill="#8166e2"/>
      <path id="Trazado_1209" data-name="Trazado 1209" d="M28.743,98.517a6.057,6.057,0,0,1-.453-.523c-.139-.139,0-.209.1-.244a.387.387,0,0,1,.488.174C29.022,98.1,28.952,98.308,28.743,98.517Z" transform="translate(-28.111 -83.044)" fill="#8166e2"/>
      <path id="Trazado_1210" data-name="Trazado 1210" d="M30.774,55.844,30.6,55.67c.418-.035.836-.07,1.324-.07a.787.787,0,0,1-.836.348A1.108,1.108,0,0,0,30.774,55.844Z" transform="translate(-29.654 -55.6)" fill="#8166e2"/>
      <path id="Trazado_1211" data-name="Trazado 1211" d="M76.509,64.317c-.07-.1-.209-.244-.209-.348a.378.378,0,0,1,.279-.279c.209-.035.314.1.279.314-.035.139-.139.209-.244.348C76.614,64.317,76.544,64.317,76.509,64.317Z" transform="translate(-59.428 -60.867)" fill="#8166e2"/>
      <path id="Trazado_1212" data-name="Trazado 1212" d="M31.988,101.984c-.139-.174-.279-.348-.488-.592.174-.035.314-.139.453-.1.1.035.244.139.244.244a2.751,2.751,0,0,1-.1.453Z" transform="translate(-30.24 -85.361)" fill="#8166e2"/>
      <path id="Trazado_1213" data-name="Trazado 1213" d="M73.2,67.762c-.07-.1-.244-.244-.209-.348,0-.1.174-.209.279-.314.1.1.279.174.279.279s-.139.244-.209.348A.263.263,0,0,1,73.2,67.762Z" transform="translate(-57.27 -63.092)" fill="#8166e2"/>
      <path id="Trazado_1214" data-name="Trazado 1214" d="M42.348,97.9c.07.1.209.244.209.348s-.174.209-.279.314c-.1-.1-.279-.209-.279-.314s.139-.209.209-.348Z" transform="translate(-37.081 -83.159)" fill="#8166e2"/>
      <path id="Trazado_1215" data-name="Trazado 1215" d="M45.609,95.227c-.07-.1-.209-.244-.209-.348a.713.713,0,0,1,.279-.279c.1.1.244.209.279.314,0,.1-.139.209-.209.348A.209.209,0,0,0,45.609,95.227Z" transform="translate(-39.296 -81.009)" fill="#8166e2"/>
      <path id="Trazado_1216" data-name="Trazado 1216" d="M69.709,71.162c-.07-.1-.209-.244-.209-.348s.174-.209.279-.314c.1.1.279.209.279.314s-.139.209-.209.348Z" transform="translate(-54.998 -65.308)" fill="#8166e2"/>
      <path id="Trazado_1217" data-name="Trazado 1217" d="M48.7,91.409c.1-.07.244-.209.348-.209s.209.174.314.279c-.1.1-.209.279-.314.279s-.209-.139-.348-.209Z" transform="translate(-41.446 -78.794)" fill="#8166e2"/>
      <path id="Trazado_1218" data-name="Trazado 1218" d="M65.835,74.209c.1-.07.244-.209.348-.209a.713.713,0,0,1,.279.279c-.1.1-.209.244-.314.279-.1,0-.209-.139-.348-.209C65.8,74.314,65.835,74.244,65.835,74.209Z" transform="translate(-52.587 -67.588)" fill="#8166e2"/>
      <path id="Trazado_1219" data-name="Trazado 1219" d="M38.4,101.8c.1-.07.244-.244.348-.209a.279.279,0,1,1,0,.558c-.1,0-.244-.139-.348-.209Z" transform="translate(-34.736 -85.561)" fill="#8166e2"/>
      <path id="Trazado_1220" data-name="Trazado 1220" d="M62.809,78.062c-.07-.1-.209-.244-.209-.348s.174-.209.279-.314c.1.1.279.174.279.314,0,.1-.139.244-.209.348Z" transform="translate(-50.502 -69.803)" fill="#8166e2"/>
      <path id="Trazado_1221" data-name="Trazado 1221" d="M52.509,88.362c-.07-.1-.209-.244-.209-.348s.174-.209.279-.314c.1.1.279.174.279.314,0,.1-.139.244-.209.348Z" transform="translate(-43.792 -76.514)" fill="#8166e2"/>
      <path id="Trazado_1222" data-name="Trazado 1222" d="M59,81.1c.1-.07.244-.244.348-.209a.279.279,0,1,1,0,.558c-.1,0-.244-.139-.348-.209Z" transform="translate(-48.157 -72.075)" fill="#8166e2"/>
      <path id="Trazado_1223" data-name="Trazado 1223" d="M56.048,84.1c.07.1.209.244.209.348a.279.279,0,0,1-.558,0c0-.1.139-.244.209-.348Z" transform="translate(-46.007 -74.168)" fill="#8166e2"/>
      <path id="Trazado_1224" data-name="Trazado 1224" d="M37.8,55.6h1.045A.653.653,0,0,1,37.8,55.6Z" transform="translate(-34.345 -55.6)" fill="#8166e2"/>
      <path id="Trazado_1225" data-name="Trazado 1225" d="M48.6,98.5c.174-.1.279-.244.383-.209.1,0,.209.139.209.244a.314.314,0,0,1-.209.209A3.143,3.143,0,0,1,48.6,98.5Z" transform="translate(-41.381 -83.41)" fill="#8166e2"/>
      <path id="Trazado_1226" data-name="Trazado 1226" d="M52.644,94.4c.1.174.244.279.209.383,0,.1-.139.209-.244.209a.314.314,0,0,1-.209-.209A3.142,3.142,0,0,1,52.644,94.4Z" transform="translate(-43.857 -80.879)" fill="#8166e2"/>
      <path id="Trazado_1227" data-name="Trazado 1227" d="M76.744,71.292c-.1-.174-.244-.279-.244-.348,0-.1.139-.174.244-.244.07.07.209.139.244.244C76.953,71.014,76.848,71.118,76.744,71.292Z" transform="translate(-59.559 -65.438)" fill="#8166e2"/>
      <path id="Trazado_1228" data-name="Trazado 1228" d="M73.244,73.8c.1.174.244.279.209.348,0,.1-.139.209-.244.209A.314.314,0,0,1,73,74.148C73.035,74.079,73.139,73.974,73.244,73.8Z" transform="translate(-57.278 -67.458)" fill="#8166e2"/>
      <path id="Trazado_1229" data-name="Trazado 1229" d="M45.8,102.292c-.1-.174-.244-.279-.209-.383,0-.1.139-.209.244-.209a.314.314,0,0,1,.209.209C46.043,102.014,45.9,102.118,45.8,102.292Z" transform="translate(-39.416 -85.635)" fill="#8166e2"/>
      <path id="Trazado_1230" data-name="Trazado 1230" d="M56.109,91c.1.174.244.279.244.348,0,.1-.139.209-.244.209a.314.314,0,0,1-.209-.209C55.9,91.279,56,91.174,56.109,91Z" transform="translate(-46.137 -78.664)" fill="#8166e2"/>
      <path id="Trazado_1231" data-name="Trazado 1231" d="M69.809,78.192c-.1-.174-.209-.279-.209-.383a.353.353,0,0,1,.244-.209.306.306,0,0,1,.209.244C70.053,77.948,69.948,78.018,69.809,78.192Z" transform="translate(-55.063 -69.933)" fill="#8166e2"/>
      <path id="Trazado_1232" data-name="Trazado 1232" d="M59.544,88.558c-.1-.174-.244-.279-.244-.348,0-.1.139-.209.244-.209a.314.314,0,0,1,.209.209C59.753,88.279,59.648,88.383,59.544,88.558Z" transform="translate(-48.352 -76.709)" fill="#8166e2"/>
      <path id="Trazado_1233" data-name="Trazado 1233" d="M66.444,80.7c.1.174.244.279.209.383,0,.1-.139.209-.244.209a.314.314,0,0,1-.209-.209C66.2,80.944,66.3,80.874,66.444,80.7Z" transform="translate(-52.848 -71.953)" fill="#8166e2"/>
      <path id="Trazado_1234" data-name="Trazado 1234" d="M63.009,84.1c.1.174.244.279.244.348,0,.1-.139.209-.244.209a.314.314,0,0,1-.209-.209C62.8,84.379,62.9,84.274,63.009,84.1Z" transform="translate(-50.633 -74.168)" fill="#8166e2"/>
      <path id="Trazado_1235" data-name="Trazado 1235" d="M35.592,105.283c-.174-.035-.383-.07-.558-.1a.21.21,0,0,0-.035-.139c.139-.035.279-.139.383-.139.1.035.174.174.279.244A.181.181,0,0,1,35.592,105.283Z" transform="translate(-32.52 -87.72)" fill="#8166e2"/>
      <path id="Trazado_1236" data-name="Trazado 1236" d="M44.9,55.6h.871C45.527,55.844,45.283,55.879,44.9,55.6Z" transform="translate(-38.97 -55.6)" fill="#8166e2"/>
      <path id="Trazado_1237" data-name="Trazado 1237" d="M42.488,105.379h-.453c0-.035-.035-.035-.035-.07.1-.07.174-.209.279-.209s.174.1.279.174C42.523,105.309,42.523,105.344,42.488,105.379Z" transform="translate(-37.081 -87.85)" fill="#8166e2"/>
      <path id="Trazado_1238" data-name="Trazado 1238" d="M76.4,77.974c.139-.1.209-.174.279-.174s.139.1.209.174c-.07.07-.1.174-.174.174C76.609,78.148,76.539,78.044,76.4,77.974Z" transform="translate(-59.493 -70.064)" fill="#8166e2"/>
      <path id="Trazado_1239" data-name="Trazado 1239" d="M73.461,81.718c-.1-.1-.209-.209-.174-.244,0-.07.1-.139.174-.174.035,0,.174.1.174.139C73.6,81.509,73.531,81.579,73.461,81.718Z" transform="translate(-57.461 -72.344)" fill="#8166e2"/>
      <path id="Trazado_1240" data-name="Trazado 1240" d="M69.5,84.774c.139-.07.209-.174.279-.174s.139.1.174.174a.245.245,0,0,1-.174.139C69.709,84.948,69.639,84.879,69.5,84.774Z" transform="translate(-54.998 -74.494)" fill="#8166e2"/>
      <path id="Trazado_1241" data-name="Trazado 1241" d="M66.1,88.274c.139-.1.209-.174.244-.174.07,0,.139.1.174.174,0,.035-.1.174-.139.174C66.309,88.448,66.239,88.344,66.1,88.274Z" transform="translate(-52.783 -76.774)" fill="#8166e2"/>
      <path id="Trazado_1242" data-name="Trazado 1242" d="M63.074,91.3c.1.139.174.209.174.244,0,.07-.1.139-.174.174-.035,0-.174-.1-.174-.139A.508.508,0,0,1,63.074,91.3Z" transform="translate(-50.698 -78.859)" fill="#8166e2"/>
      <path id="Trazado_1243" data-name="Trazado 1243" d="M59.722,94.7c.07.139.174.209.174.279s-.1.139-.174.174a.245.245,0,0,1-.139-.174C59.548,94.909,59.618,94.839,59.722,94.7Z" transform="translate(-48.531 -81.074)" fill="#8166e2"/>
      <path id="Trazado_1244" data-name="Trazado 1244" d="M55.8,98.561c.1-.1.209-.209.244-.174.07,0,.139.1.174.174,0,.035-.1.174-.139.174C56.009,98.736,55.939,98.666,55.8,98.561Z" transform="translate(-46.072 -83.472)" fill="#8166e2"/>
      <path id="Trazado_1245" data-name="Trazado 1245" d="M52.3,101.974c.139-.07.209-.174.279-.174s.139.1.174.174a.245.245,0,0,1-.174.139C52.509,102.148,52.439,102.079,52.3,101.974Z" transform="translate(-43.792 -85.7)" fill="#8166e2"/>
    </g>
    <path id="Trazado_1246" data-name="Trazado 1246" d="M77.768,69.788H57.974A2.484,2.484,0,0,1,55.5,67.313V57.974A2.484,2.484,0,0,1,57.974,55.5H77.768a2.484,2.484,0,0,1,2.474,2.474v9.339A2.484,2.484,0,0,1,77.768,69.788Z" transform="translate(-45.568 -55.326)" fill="gold"/>
    <rect id="Rectángulo_783" data-name="Rectángulo 783" width="4.53" height="10.106" transform="translate(24.916 2.265)" fill="#5d44b7"/>
    <path id="Trazado_1247" data-name="Trazado 1247" d="M72.884,126.454H40.964a1.472,1.472,0,0,1-1.464-1.464V105.964a1.472,1.472,0,0,1,1.464-1.464H72.884a1.472,1.472,0,0,1,1.464,1.464v19.027A1.472,1.472,0,0,1,72.884,126.454Z" transform="translate(-35.144 -87.25)" fill="#fff"/>
    <g id="Grupo_3602" data-name="Grupo 3602" transform="translate(13.068 25.265)">
      <circle id="Elipse_93" data-name="Elipse 93" cx="1.22" cy="1.22" r="1.22" fill="#448aff"/>
      <circle id="Elipse_94" data-name="Elipse 94" cx="1.22" cy="1.22" r="1.22" transform="translate(15.856 0.174)" fill="#448aff"/>
      <path id="Trazado_1248" data-name="Trazado 1248" d="M85.8,142.2a11.216,11.216,0,0,1-10.7.035" transform="translate(-71.406 -137.077)" fill="none" stroke="#448aff" stroke-linecap="round" stroke-miterlimit="10" stroke-width="1"/>
    </g>
    <g id="Grupo_3603" data-name="Grupo 3603" transform="translate(9.757 23.871)" opacity="0.2">
      <line id="Línea_294" data-name="Línea 294" x2="24.742" fill="none" stroke="#9a4eea" stroke-miterlimit="10" stroke-width="1" opacity="0.58"/>
      <line id="Línea_295" data-name="Línea 295" x2="24.742" transform="translate(0 4.879)" fill="none" stroke="#9a4eea" stroke-miterlimit="10" stroke-width="1" opacity="0.58"/>
      <line id="Línea_296" data-name="Línea 296" x2="24.742" transform="translate(0 9.757)" fill="none" stroke="#9a4eea" stroke-miterlimit="10" stroke-width="1" opacity="0.58"/>
    </g>
  </g>
</svg>
