<svg xmlns="http://www.w3.org/2000/svg" width="16.268" height="18.8" viewBox="0 0 16.268 18.8">
  <g id="Grupo_8447" data-name="Grupo 8447" transform="translate(0.029)">
    <g id="Grupo_3317" data-name="Grupo 3317" transform="translate(-0.029 1.779)">
      <path id="Trazado_283" data-name="Trazado 283" d="M.872,16.89s2.279-.926,2.492-6.017c0,0,.071-1.673.107-2.67,0,0,.178-3.1,4.629-3.2,0,0,4.593-.178,4.664,3.81,0,0-.249,4.558,1.033,6.552a6.8,6.8,0,0,0,1.994,2.065,1.691,1.691,0,0,1,.392,1.638H.053A1.88,1.88,0,0,1,.872,16.89Z" transform="translate(0.029 -4.997)" fill="#fff"/>
    </g>
    <circle id="Elipse_70" data-name="Elipse 70" cx="1.139" cy="1.139" r="1.139" transform="translate(6.996 0)" fill="#fff"/>
    <g id="Grupo_3318" data-name="Grupo 3318" transform="translate(5.821 16.486)">
      <path id="Trazado_284" data-name="Trazado 284" d="M18.714,48.614A2.31,2.31,0,0,0,21.029,46.3H16.4A2.31,2.31,0,0,0,18.714,48.614Z" transform="translate(-16.4 -46.3)" fill="#fff"/>
    </g>
  </g>
</svg>
