<svg xmlns="http://www.w3.org/2000/svg" width="15.408" height="20.224" viewBox="0 0 15.408 20.224">
  <g id="Grupo_8456" data-name="Grupo 8456" transform="translate(-821 -1974.871)">
    <path id="Trazado_29" data-name="Trazado 29" d="M5.758,19.683l-1.043-.835c-.487-.383-.869-.522-.591-.869L13.1,6.363c.243-.313.452-.661.974-.278l1.948,1.6c.487.383.209.591-.07.9L6.976,20.274C6.732,20.587,6.245,20.065,5.758,19.683Z" transform="translate(818.372 1970.995)" fill="#39c5c8"/>
    <path id="Trazado_30" data-name="Trazado 30" d="M17.1,58.2" transform="translate(809.847 1936.895)" fill="#39c5c8"/>
    <path id="Trazado_31" data-name="Trazado 31" d="M33.8,1.109,34.5.24A.713.713,0,0,1,35.5.275l1.565,1.252a.664.664,0,0,1,.278.939l-.7.869Z" transform="translate(798.955 1974.823)" fill="#39c5c8"/>
    <path id="Trazado_32" data-name="Trazado 32" d="M.487,44.5,0,47.978l3.3-1.287Z" transform="translate(821 1945.83)" fill="#39c5c8"/>
  </g>
</svg>
