<svg xmlns="http://www.w3.org/2000/svg" xmlns:xlink="http://www.w3.org/1999/xlink" width="25" height="25" viewBox="0 0 25 25">
  <defs>
    <clipPath id="clip-Mesa_de_trabajo_25">
      <rect width="25" height="25"/>
    </clipPath>
  </defs>
  <g id="Mesa_de_trabajo_25" data-name="Mesa de trabajo – 25" clip-path="url(#clip-Mesa_de_trabajo_25)">
    <path id="Trazado_10742" data-name="Trazado 10742" d="M6022.3,1059.6a.3.3,0,0,1-.252-.141.343.343,0,0,1-.017-.331l3.248-6.68a.285.285,0,0,0,0-.294l-3.193-6.68a.335.335,0,0,1,.269-.472c8.621,0,20.918,0,21,0l3.407,7.14a.3.3,0,0,1,0,.315l-3.465,7.137Zm8.531-3.833v2h2v-2Zm0-3v2h2v-2Zm8-2.5a2,2,0,1,0,2,2A2,2,0,0,0,6038.836,1050.27Zm-8-.5v2h2v-2Zm0-3v2h2v-2Z" transform="translate(-6021.901 -1039.999)" fill="#0094d1"/>
  </g>
</svg>
