<svg xmlns="http://www.w3.org/2000/svg" width="7.351" height="13.364" viewBox="0 0 7.351 13.364">
  <g id="Grupo_8524" data-name="Grupo 8524" transform="translate(-10 13.364) rotate(-90)">
    <g id="Grupo_7207" data-name="Grupo 7207" transform="translate(0 10)">
      <path id="Trazado_9667" data-name="Trazado 9667" d="M-9.012-18.033a3.708,3.708,0,0,1-3.673-3.677,3.707,3.707,0,0,1,3.673-3.673h7.018A2.681,2.681,0,0,1,.679-22.712,2.679,2.679,0,0,1-1.993-20.04h-5.68a1.652,1.652,0,0,1-1.67-1.67,1.655,1.655,0,0,1,1.67-1.671h5.011v1.006H-7.674a.631.631,0,0,0-.669.665.632.632,0,0,0,.669.669h5.68a1.653,1.653,0,0,0,1.671-1.67,1.653,1.653,0,0,0-1.671-1.671H-9.012a2.683,2.683,0,0,0-2.672,2.672,2.683,2.683,0,0,0,2.672,2.676h6.35v1Z" transform="translate(12.685 25.384)" fill="#39c5c8"/>
    </g>
  </g>
</svg>
