<svg id="Grupo_8588" data-name="Grupo 8588" xmlns="http://www.w3.org/2000/svg" width="14.655" height="15.647" viewBox="0 0 14.655 15.647">
  <path id="Trazado_2764" data-name="Trazado 2764" d="M17.373,2.941c.058,0,.117.058.175.058a.321.321,0,0,0,.292-.175l.409-.7a.306.306,0,0,0-.117-.467.306.306,0,0,0-.467.117l-.409.7A.316.316,0,0,0,17.373,2.941Z" transform="translate(-7.156 -0.664)" fill="#acbcd4"/>
  <path id="Trazado_2765" data-name="Trazado 2765" d="M6.393,2.824A.416.416,0,0,0,6.743,3a.214.214,0,0,0,.175-.058.316.316,0,0,0,.117-.467l-.409-.7a.324.324,0,0,0-.467-.117.368.368,0,0,0-.175.467Z" transform="translate(-2.481 -0.664)" fill="#acbcd4"/>
  <path id="Trazado_2766" data-name="Trazado 2766" d="M12.284,1.518a.377.377,0,0,0,.35-.35V.35a.377.377,0,0,0-.35-.35.327.327,0,0,0-.292.35v.817A.292.292,0,0,0,12.284,1.518Z" transform="translate(-4.986)" fill="#acbcd4"/>
  <path id="Trazado_2767" data-name="Trazado 2767" d="M1.168,11.9H.35a.35.35,0,0,0,0,.7h.817a.35.35,0,0,0,0-.7Z" transform="translate(0 -4.952)" fill="#acbcd4"/>
  <path id="Trazado_2768" data-name="Trazado 2768" d="M23.668,11.9H22.85a.35.35,0,1,0,0,.7h.817a.35.35,0,0,0,0-.7Z" transform="translate(-9.363 -4.952)" fill="#acbcd4"/>
  <path id="Trazado_2769" data-name="Trazado 2769" d="M22.441,6.1a.423.423,0,0,0-.467-.117l-.7.409a.316.316,0,0,0-.117.467.321.321,0,0,0,.292.175.214.214,0,0,0,.175-.058l.7-.409A.306.306,0,0,0,22.441,6.1Z" transform="translate(-8.779 -2.481)" fill="#acbcd4"/>
  <path id="Trazado_2770" data-name="Trazado 2770" d="M9.254,4.7A4.56,4.56,0,0,0,4.7,9.254a4.83,4.83,0,0,0,.584,2.219c0,.058.058.058.058.117a3.748,3.748,0,0,0,.584.759,3.925,3.925,0,0,1,.934,2.16v1.81A1.3,1.3,0,0,0,8.145,17.6h2.1a1.3,1.3,0,0,0,1.284-1.284v-1.81h0a4.6,4.6,0,0,1,.993-2.219,2.592,2.592,0,0,0,.467-.642l.058-.058c.058-.058.058-.058.058-.117a4.354,4.354,0,0,0,.584-2.219A4.462,4.462,0,0,0,9.254,4.7Zm1.635,11.677a.621.621,0,0,1-.584.525H8.2a.621.621,0,0,1-.584-.525V16.26h3.27Zm0-.817H7.619v-.642h3.27v.642Zm1.635-4.437h0a.057.057,0,0,1-.058.058,5.05,5.05,0,0,1-.409.584.057.057,0,0,0-.058.058,6.147,6.147,0,0,0-1.109,2.335H7.561a5.752,5.752,0,0,0-1.109-2.277h0l-.525-.7h0A3.828,3.828,0,0,1,5.4,9.254,3.825,3.825,0,0,1,13.049,9.2,3.531,3.531,0,0,1,12.524,11.122Z" transform="translate(-1.956 -1.956)" fill="#acbcd4"/>
  <path id="Trazado_2771" data-name="Trazado 2771" d="M2.824,6.392l-.7-.409a.423.423,0,0,0-.467.117.38.38,0,0,0,.117.525l.7.409a.214.214,0,0,0,.175.058.321.321,0,0,0,.292-.175A.38.38,0,0,0,2.824,6.392Z" transform="translate(-0.664 -2.481)" fill="#acbcd4"/>
</svg>
