<svg xmlns="http://www.w3.org/2000/svg" width="21.888" height="14.668" viewBox="0 0 21.888 14.668">
  <g id="Grupo_8445" data-name="Grupo 8445" transform="translate(-840 -24.846)">
    <path id="Trazado_8" data-name="Trazado 8" d="M143.565,12.6H130.352a.06.06,0,0,0-.052.066v1.487a.061.061,0,0,0,.052.066h13.213a.06.06,0,0,0,.052-.066V12.666c0-.039-.021-.066-.052-.066Zm0,0" transform="translate(718.271 13.075)" fill="#099fce"/>
    <path id="Trazado_9" data-name="Trazado 9" d="M130.366,55.012h8.288a.066.066,0,0,0,.066-.066v-1.48a.066.066,0,0,0-.066-.066h-8.288a.066.066,0,0,0-.066.066v1.487a.061.061,0,0,0,.066.059Zm0,0" transform="translate(718.271 -25.041)" fill="#099fce"/>
    <path id="Trazado_10" data-name="Trazado 10" d="M143.565,145.1H130.352a.06.06,0,0,0-.052.066v1.487a.061.061,0,0,0,.052.066h13.213a.06.06,0,0,0,.052-.066v-1.487c0-.039-.021-.066-.052-.066Zm0,0" transform="translate(718.271 -110.709)" fill="#099fce"/>
    <path id="Trazado_11" data-name="Trazado 11" d="M130.366,187.418h8.288a.066.066,0,0,0,.066-.066v-1.487a.066.066,0,0,0-.066-.066h-8.288a.066.066,0,0,0-.066.066v1.487a.062.062,0,0,0,.066.066Zm0,0" transform="translate(718.271 -148.732)" fill="#099fce"/>
    <path id="Trazado_14" data-name="Trazado 14" d="M2.73,3.177,1.394,1.829,0,3.223,1.335,4.565,2.723,5.959,4.118,4.578,7.308,1.4,5.926,0Zm0,0" transform="translate(840 24.846)" fill="#099fce"/>
    <path id="Trazado_15" data-name="Trazado 15" d="M2.73,135.677l-1.335-1.348L0,135.716l1.335,1.342,1.388,1.394,1.394-1.381,3.19-3.177L5.926,132.5Zm0,0" transform="translate(840 -98.938)" fill="#099fce"/>
  </g>
</svg>
