<svg xmlns="http://www.w3.org/2000/svg" xmlns:xlink="http://www.w3.org/1999/xlink" width="142" height="154" viewBox="0 0 142 154">
  <defs>
    <filter id="Trazado_2129" x="19.167" y="33.001" width="103.853" height="122.599" filterUnits="userSpaceOnUse">
      <feOffset dy="4" input="SourceAlpha"/>
      <feGaussianBlur stdDeviation="2" result="blur"/>
      <feFlood flood-opacity="0.051"/>
      <feComposite operator="in" in2="blur"/>
      <feComposite in="SourceGraphic"/>
    </filter>
    <clipPath id="clip-Mesa_de_trabajo_6">
      <rect width="142" height="154"/>
    </clipPath>
  </defs>
  <g id="Mesa_de_trabajo_6" data-name="Mesa de trabajo – 6" clip-path="url(#clip-Mesa_de_trabajo_6)">
    <g id="Grupo_8725" data-name="Grupo 8725" transform="translate(-569 -280)">
      <g id="Grupo_8597" data-name="Grupo 8597">
        <g id="Grupo_3652" data-name="Grupo 3652" transform="translate(569 280.418)">
          <circle id="Elipse_110" data-name="Elipse 110" cx="70.793" cy="70.793" r="70.793" transform="translate(0 0)" fill="#d1d5e9"/>
          <g id="Grupo_3651" data-name="Grupo 3651" transform="translate(25.167 34.583)">
            <g transform="matrix(1, 0, 0, 1, -25.17, -35)" filter="url(#Trazado_2129)">
              <path id="Trazado_2129-2" data-name="Trazado 2129" d="M114.061,151H36.676a7.27,7.27,0,0,1-7.276-7.276V47.676A7.27,7.27,0,0,1,36.676,40.4h77.3a7.27,7.27,0,0,1,7.276,7.276v96.046A7.2,7.2,0,0,1,114.061,151Z" transform="translate(-4.23 -5.4)" fill="#fff"/>
            </g>
            <g id="Grupo_3649" data-name="Grupo 3649" transform="translate(33.615 56.117)">
              <path id="Trazado_2130" data-name="Trazado 2130" d="M126.5,163.078a7.011,7.011,0,0,1-.6-2.568,3.152,3.152,0,0,1,3.339-2.91,3.261,3.261,0,0,1,3.167,3.082v1.027c.342,0,.77-.086,1.113-.086.342,2.054-1.2,4.109-3.681,4.879,0-.77.086-1.455.086-2.054-1.027-.342-2.054-.6-3-.942C126.754,163.335,126.669,163.164,126.5,163.078Z" transform="translate(-75.906 -112.39)" fill="#f7f7f7"/>
              <path id="Trazado_2131" data-name="Trazado 2131" d="M125.691,163.879l.342.342c.257,1.027.514,1.969.856,3.082h-6.42a2.929,2.929,0,0,1,.942-3.338,3.155,3.155,0,0,1,3.424-.514C125.092,163.623,125.435,163.708,125.691,163.879Z" transform="translate(-75.1 -113.192)" fill="#f7f7f7"/>
              <path id="Trazado_2132" data-name="Trazado 2132" d="M118.054,163.607a2.6,2.6,0,0,1-2.654-2.568,2.654,2.654,0,1,1,5.307-.086A2.666,2.666,0,0,1,118.054,163.607Z" transform="translate(-74.396 -112.492)" fill="#f7f7f7"/>
              <path id="Trazado_2133" data-name="Trazado 2133" d="M121,155.268a2.67,2.67,0,0,1,2.739-2.568A2.655,2.655,0,1,1,121,155.268Z" transform="translate(-75.202 -111.685)" fill="#f7f7f7"/>
              <path id="Trazado_2134" data-name="Trazado 2134" d="M129.254,152.421a2.6,2.6,0,0,1-2.654-2.568,2.562,2.562,0,0,1,2.654-2.654,2.6,2.6,0,0,1,2.568,2.654A2.522,2.522,0,0,1,129.254,152.421Z" transform="translate(-76.009 -110.893)" fill="#f7f7f7"/>
              <path id="Trazado_2135" data-name="Trazado 2135" d="M112.446,167.5H110.99c-1.113,0-1.37-.342-1.2-1.455a2.664,2.664,0,0,1,2.654-2.14,2.565,2.565,0,0,1,2.482,2.14c.257,1.113,0,1.455-1.113,1.455Z" transform="translate(-73.582 -113.298)" fill="#f7f7f7"/>
              <path id="Trazado_2136" data-name="Trazado 2136" d="M134.41,152.2v6.078a2.941,2.941,0,0,1-2.91-2.91A3.035,3.035,0,0,1,134.41,152.2Z" transform="translate(-76.714 -111.613)" fill="#f7f7f7"/>
              <path id="Trazado_2137" data-name="Trazado 2137" d="M109.08,161.039a2.123,2.123,0,0,1-2.226,2.054,2.3,2.3,0,0,1-2.054-2.226,2.082,2.082,0,0,1,2.14-1.969A2.174,2.174,0,0,1,109.08,161.039Z" transform="translate(-72.87 -112.577)" fill="#f7f7f7"/>
              <path id="Trazado_2138" data-name="Trazado 2138" d="M112.554,157.594a2.1,2.1,0,0,1-2.054-2.14,2.123,2.123,0,0,1,2.226-2.054,2.221,2.221,0,0,1,2.054,2.14A2.379,2.379,0,0,1,112.554,157.594Z" transform="translate(-73.69 -111.785)" fill="#f7f7f7"/>
              <path id="Trazado_2139" data-name="Trazado 2139" d="M118.04,147.8a2.1,2.1,0,1,1,0,4.195,2.221,2.221,0,0,1-2.14-2.054A2.3,2.3,0,0,1,118.04,147.8Z" transform="translate(-74.468 -110.98)" fill="#f7f7f7"/>
              <path id="Trazado_2140" data-name="Trazado 2140" d="M123.64,142.2a2.159,2.159,0,0,1,2.14,2.054,2.141,2.141,0,1,1-2.14-2.054Z" transform="translate(-75.275 -110.174)" fill="#f7f7f7"/>
              <path id="Trazado_2141" data-name="Trazado 2141" d="M131.38,138.654a2.174,2.174,0,0,1-2.14,2.14,2.235,2.235,0,0,1-2.14-2.14,2.083,2.083,0,0,1,2.054-2.054A2.18,2.18,0,0,1,131.38,138.654Z" transform="translate(-76.081 -109.367)" fill="#f7f7f7"/>
              <path id="Trazado_2142" data-name="Trazado 2142" d="M103.251,167.492h-3.6a1.907,1.907,0,0,1,.6-2.568,1.823,1.823,0,0,1,2.4,0A1.994,1.994,0,0,1,103.251,167.492Z" transform="translate(-72.092 -113.381)" fill="#f7f7f7"/>
              <path id="Trazado_2143" data-name="Trazado 2143" d="M134.511,141.8v4.879a2.443,2.443,0,0,1,0-4.879Z" transform="translate(-76.815 -110.116)" fill="#f7f7f7"/>
              <path id="Trazado_2144" data-name="Trazado 2144" d="M119.853,138.825a1.7,1.7,0,0,1-1.712,1.626,1.609,1.609,0,0,1-1.541-1.626,1.7,1.7,0,0,1,1.712-1.626A1.609,1.609,0,0,1,119.853,138.825Z" transform="translate(-74.569 -109.453)" fill="#f7f7f7"/>
              <path id="Trazado_2145" data-name="Trazado 2145" d="M97.538,161.125a1.646,1.646,0,0,1-1.712,1.626,1.749,1.749,0,0,1-1.626-1.626,1.646,1.646,0,0,1,1.712-1.626A1.684,1.684,0,0,1,97.538,161.125Z" transform="translate(-71.344 -112.663)" fill="#f7f7f7"/>
              <path id="Trazado_2146" data-name="Trazado 2146" d="M125.453,133.212a1.625,1.625,0,0,1-1.626,1.626,1.684,1.684,0,0,1-1.626-1.626,1.763,1.763,0,0,1,1.626-1.712A1.83,1.83,0,0,1,125.453,133.212Z" transform="translate(-75.375 -108.633)" fill="#f7f7f7"/>
              <path id="Trazado_2147" data-name="Trazado 2147" d="M114.253,144.411a1.628,1.628,0,0,1-1.712,1.541A1.752,1.752,0,0,1,111,144.24a1.628,1.628,0,0,1,1.712-1.541A1.683,1.683,0,0,1,114.253,144.411Z" transform="translate(-73.763 -110.244)" fill="#f7f7f7"/>
              <path id="Trazado_2148" data-name="Trazado 2148" d="M103.153,155.611a1.628,1.628,0,0,1-1.712,1.541A1.752,1.752,0,0,1,99.9,155.44a1.628,1.628,0,0,1,1.712-1.541A1.752,1.752,0,0,1,103.153,155.611Z" transform="translate(-72.165 -111.857)" fill="#f7f7f7"/>
              <path id="Trazado_2149" data-name="Trazado 2149" d="M129.325,129.339a1.646,1.646,0,0,1-1.626-1.712A1.749,1.749,0,0,1,129.325,126a1.646,1.646,0,0,1,1.626,1.712A1.749,1.749,0,0,1,129.325,129.339Z" transform="translate(-76.166 -107.841)" fill="#f7f7f7"/>
              <path id="Trazado_2150" data-name="Trazado 2150" d="M107.125,151.539a1.646,1.646,0,0,1-1.626-1.712,1.749,1.749,0,0,1,1.626-1.626,1.646,1.646,0,0,1,1.626,1.712A1.745,1.745,0,0,1,107.125,151.539Z" transform="translate(-72.97 -111.037)" fill="#f7f7f7"/>
              <path id="Trazado_2151" data-name="Trazado 2151" d="M90.34,167.568c-.77,0-1.626.171-1.541-1.027A1.669,1.669,0,0,1,90.425,165a1.609,1.609,0,0,1,1.541,1.626C91.881,167.91,91.025,167.568,90.34,167.568Z" transform="translate(-70.566 -113.456)" fill="#f7f7f7"/>
              <path id="Trazado_2152" data-name="Trazado 2152" d="M134.607,131.3v3.852a1.839,1.839,0,0,1-1.712-1.712C132.724,132.327,133.323,131.642,134.607,131.3Z" transform="translate(-76.911 -108.604)" fill="#f7f7f7"/>
              <path id="Trazado_2153" data-name="Trazado 2153" d="M130.863,116.868c-.428.342-.856.856-1.37.942a.969.969,0,0,1-1.2-1.2c.086-.428.685-1.113,1.113-1.113.428-.086.942.514,1.37.77A1.269,1.269,0,0,1,130.863,116.868Z" transform="translate(-76.249 -106.328)" fill="#f7f7f7"/>
              <path id="Trazado_2154" data-name="Trazado 2154" d="M91.863,155.939c-.428.257-.942.856-1.37.77a2.174,2.174,0,0,1-1.2-1.113c-.171-.77.428-1.284,1.2-1.2.514.086.942.6,1.37.942Z" transform="translate(-70.634 -111.929)" fill="#f7f7f7"/>
              <path id="Trazado_2155" data-name="Trazado 2155" d="M125.263,122.454c-.428.342-.856.856-1.37.856a.969.969,0,0,1-1.2-1.2,1.933,1.933,0,0,1,1.2-1.113c.428-.086.942.514,1.37.856Z" transform="translate(-75.442 -107.12)" fill="#f7f7f7"/>
              <path id="Trazado_2156" data-name="Trazado 2156" d="M86.263,161.454a3.351,3.351,0,0,1-1.37.856.969.969,0,0,1-1.2-1.2,1.933,1.933,0,0,1,1.2-1.113c.428-.086.942.514,1.37.856Z" transform="translate(-69.827 -112.735)" fill="#f7f7f7"/>
              <path id="Trazado_2157" data-name="Trazado 2157" d="M96.35,148.6c.342.428.856.942.856,1.37a2.173,2.173,0,0,1-1.113,1.2.969.969,0,0,1-1.2-1.2c.086-.514.6-.942.942-1.37Z" transform="translate(-71.44 -111.095)" fill="#f7f7f7"/>
              <path id="Trazado_2158" data-name="Trazado 2158" d="M118.55,126.3c.342.428.856.942.856,1.37a1.733,1.733,0,0,1-1.113,1.2.969.969,0,0,1-1.2-1.2c.086-.514.6-.942.856-1.37Z" transform="translate(-74.636 -107.884)" fill="#f7f7f7"/>
              <path id="Trazado_2159" data-name="Trazado 2159" d="M102.963,144.75c-.428.342-.942.856-1.37.856a1.733,1.733,0,0,1-1.2-1.113.969.969,0,0,1,1.2-1.2c.514.086.942.6,1.37.856Z" transform="translate(-72.232 -110.327)" fill="#f7f7f7"/>
              <path id="Trazado_2160" data-name="Trazado 2160" d="M107.454,137.4a3.351,3.351,0,0,1,.856,1.37.969.969,0,0,1-1.2,1.2,1.933,1.933,0,0,1-1.113-1.2c-.086-.428.514-.942.856-1.37Z" transform="translate(-73.042 -109.483)" fill="#f7f7f7"/>
              <path id="Trazado_2161" data-name="Trazado 2161" d="M112.968,131.9c.342.428.856.856.942,1.37a.969.969,0,0,1-1.2,1.2,1.744,1.744,0,0,1-1.113-1.2c-.086-.428.514-.942.856-1.37Z" transform="translate(-73.848 -108.691)" fill="#f7f7f7"/>
              <path id="Trazado_2162" data-name="Trazado 2162" d="M78.969,167.925c-.257-.342-.856-.856-.77-1.113a1.733,1.733,0,0,1,1.2-1.113c.342-.086.942.685,1.027,1.113C80.6,167.582,79.911,167.839,78.969,167.925Z" transform="translate(-69.039 -113.556)" fill="#f7f7f7"/>
              <path id="Trazado_2163" data-name="Trazado 2163" d="M134.613,120.757V123.5c-.086.086-.257.086-.342.171-.257-.514-.77-1.027-.77-1.541s.514-1.027.77-1.626C134.356,120.586,134.527,120.671,134.613,120.757Z" transform="translate(-77.002 -107.049)" fill="#f7f7f7"/>
              <path id="Trazado_2164" data-name="Trazado 2164" d="M75.038,161.17c-.6.428-.942.942-1.284.856-.342,0-.77-.514-.856-.856-.086-.257.428-.77.77-.77S74.439,160.742,75.038,161.17Z" transform="translate(-68.276 -112.794)" fill="#f7f7f7"/>
              <path id="Trazado_2165" data-name="Trazado 2165" d="M69.469,166.783c-.6.428-.856.856-1.2.856a.77.77,0,1,1,0-1.541C68.527,166.013,68.87,166.441,69.469,166.783Z" transform="translate(-67.5 -113.613)" fill="#f7f7f7"/>
              <path id="Trazado_2166" data-name="Trazado 2166" d="M80.64,155.742c-.685.428-1.027.856-1.37.77a1.433,1.433,0,0,1-.77-.942,1.129,1.129,0,0,1,.856-.77C79.7,154.8,80.041,155.228,80.64,155.742Z" transform="translate(-69.084 -111.988)" fill="#f7f7f7"/>
              <path id="Trazado_2167" data-name="Trazado 2167" d="M84.869,151.34c-.428-.685-.856-1.027-.77-1.37a1.432,1.432,0,0,1,.942-.77c.257,0,.77.514.685.856C85.725,150.4,85.3,150.741,84.869,151.34Z" transform="translate(-69.888 -111.181)" fill="#f7f7f7"/>
              <path id="Trazado_2168" data-name="Trazado 2168" d="M91.74,144.554c-.685.428-1.027.856-1.37.77a1.432,1.432,0,0,1-.77-.942c0-.257.514-.77.856-.685C90.8,143.7,91.141,144.126,91.74,144.554Z" transform="translate(-70.682 -110.388)" fill="#f7f7f7"/>
              <path id="Trazado_2169" data-name="Trazado 2169" d="M95.97,137.6c.428.6.942.942.856,1.284,0,.342-.514.77-.856.856-.257.086-.77-.428-.77-.77S95.628,138.2,95.97,137.6Z" transform="translate(-71.488 -109.511)" fill="#f7f7f7"/>
              <path id="Trazado_2170" data-name="Trazado 2170" d="M101.642,132c.428.6.856,1.027.77,1.37a1.114,1.114,0,0,1-.942.77,1.158,1.158,0,0,1-.77-.77C100.786,132.942,101.214,132.6,101.642,132Z" transform="translate(-72.28 -108.705)" fill="#f7f7f7"/>
              <path id="Trazado_2171" data-name="Trazado 2171" d="M108.538,127.769c-.6.428-.942.942-1.284.856-.342,0-.77-.514-.856-.856-.086-.257.428-.77.77-.77C107.511,126.913,107.854,127.341,108.538,127.769Z" transform="translate(-73.099 -107.983)" fill="#f7f7f7"/>
              <path id="Trazado_2172" data-name="Trazado 2172" d="M112.669,123.54c-.428-.685-.856-1.027-.77-1.37a1.432,1.432,0,0,1,.942-.77c.257,0,.77.514.685.856C113.61,122.6,113.182,122.941,112.669,123.54Z" transform="translate(-73.891 -107.179)" fill="#f7f7f7"/>
              <path id="Trazado_2173" data-name="Trazado 2173" d="M119.64,116.669c-.6.428-1.027.856-1.284.856a1.413,1.413,0,0,1-.856-.856,1.158,1.158,0,0,1,.77-.77C118.613,115.813,119.041,116.241,119.64,116.669Z" transform="translate(-74.699 -106.385)" fill="#f7f7f7"/>
              <path id="Trazado_2174" data-name="Trazado 2174" d="M125.238,110.97c-.6.428-.942.942-1.284.856-.342,0-.77-.514-.856-.856-.086-.257.428-.77.77-.77S124.554,110.628,125.238,110.97Z" transform="translate(-75.503 -105.566)" fill="#f7f7f7"/>
              <path id="Trazado_2175" data-name="Trazado 2175" d="M130.754,105.569c-.6.428-1.027.856-1.284.856a1.116,1.116,0,0,1-.77-.856,1.158,1.158,0,0,1,.77-.77C129.813,104.713,130.155,105.141,130.754,105.569Z" transform="translate(-76.311 -104.787)" fill="#f7f7f7"/>
              <path id="Trazado_2176" data-name="Trazado 2176" d="M134.66,112.054c-1.113-.685-1.113-1.2,0-2.054Z" transform="translate(-77.049 -105.538)" fill="#f7f7f7"/>
            </g>
            <g id="Grupo_3650" data-name="Grupo 3650" transform="translate(14.124 28.249)">
              <path id="Trazado_2177" data-name="Trazado 2177" d="M69.869,122.24H49.5a3.617,3.617,0,0,1-3.6-3.6V112.4a3.617,3.617,0,0,1,3.6-3.6H69.869a3.617,3.617,0,0,1,3.6,3.6v6.335A3.545,3.545,0,0,1,69.869,122.24Z" transform="translate(-45.9 -78.497)" fill="#44db93"/>
              <path id="Trazado_2178" data-name="Trazado 2178" d="M115.769,122.24H95.4a3.617,3.617,0,0,1-3.6-3.6V112.4a3.617,3.617,0,0,1,3.6-3.6h20.373a3.617,3.617,0,0,1,3.6,3.6v6.335A3.6,3.6,0,0,1,115.769,122.24Z" transform="translate(-52.508 -78.497)" fill="#44db93"/>
              <line id="Línea_297" data-name="Línea 297" x1="18.833" y2="14.21" transform="translate(13.782 16.179)" fill="none" stroke="#448aff" stroke-miterlimit="10" stroke-width="1.352"/>
              <line id="Línea_298" data-name="Línea 298" x2="19.689" y2="14.21" transform="translate(35.525 16.179)" fill="none" stroke="#448aff" stroke-miterlimit="10" stroke-width="1.352"/>
              <path id="Trazado_2179" data-name="Trazado 2179" d="M92.869,89.579H72.5a3.617,3.617,0,0,1-3.6-3.6V77a3.617,3.617,0,0,1,3.6-3.6H92.869a3.617,3.617,0,0,1,3.6,3.6v8.988A3.617,3.617,0,0,1,92.869,89.579Z" transform="translate(-49.211 -73.4)" fill="gold"/>
            </g>
          </g>
        </g>
        <g id="Grupo_8596" data-name="Grupo 8596" transform="translate(654.059 304.437)">
          <circle id="Elipse_80" data-name="Elipse 80" cx="21.579" cy="21.579" r="21.579" fill="#f5f9ff"/>
          <path id="Trazado_565" data-name="Trazado 565" d="M134,81.927h-8.27V90.2H122.97v-8.27H114.7V79.17h8.27V70.9h2.757v8.27H134Z" transform="translate(-102.722 -59.588)" fill="#2db43e"/>
        </g>
      </g>
    </g>
  </g>
</svg>
