<svg xmlns="http://www.w3.org/2000/svg" xmlns:xlink="http://www.w3.org/1999/xlink" width="166" height="184" viewBox="0 0 166 184">
  <defs>
    <clipPath id="clip-Mesa_de_trabajo_2">
      <rect width="166" height="184"/>
    </clipPath>
  </defs>
  <g id="Mesa_de_trabajo_2" data-name="Mesa de trabajo – 2" clip-path="url(#clip-Mesa_de_trabajo_2)">
    <g id="Grupo_8721" data-name="Grupo 8721" transform="translate(-680 -228)">
      <g id="Grupo_8714" data-name="Grupo 8714">
        <circle id="Elipse_277" data-name="Elipse 277" cx="82.689" cy="82.689" r="82.689" transform="translate(680 228)" fill="#d1d5e9" style="isolation: isolate"/>
        <path id="Trazado_1039" data-name="Trazado 1039" d="M575.209,2467.881l.679,25.369L593,2509.015a4.7,4.7,0,0,0,6.609,0c5.431-5.255,15.251-15.039,14.911-15.584-.509-.905-.766-23.89-.766-23.89s-9.556,4.277-19.725,4.083C594.2,2473.624,579.107,2469.874,575.209,2467.881Z" transform="translate(167.818 -2116.48)" fill="#ffcb83"/>
        <circle id="Elipse_575" data-name="Elipse 575" cx="50" cy="50" r="50" transform="translate(713 260)" fill="#ffd69d"/>
        <path id="Trazado_10678" data-name="Trazado 10678" d="M49.19-3.1C76.8-3.1,107.229,17.245,100,50c-5.233,9.7-21.519-22.776-36.93-26.575-1.179-.843,1.565,5.6,0,4.612-5.059-3.21-14.845-8.51-18.147-8.379s7.97,9.23,4.722,8.956-14.969-9.721-27.372-7.662C17.244,25.907,17.46,35.778,0,50-5.513,22.315,21.576-3.1,49.19-3.1Z" transform="translate(713 255)" fill="#392337"/>
        <g id="Grupo_7813" data-name="Grupo 7813" transform="translate(181.505 -2108.035)">
          <g id="Grupo_7809" data-name="Grupo 7809" transform="translate(556.495 2411.817)">
            <ellipse id="Elipse_267" data-name="Elipse 267" cx="3.706" cy="4.305" rx="3.706" ry="4.305" transform="translate(0 0)" fill="#24303d"/>
          </g>
          <g id="Grupo_7812" data-name="Grupo 7812" transform="translate(599.485 2411.817)">
            <ellipse id="Elipse_269" data-name="Elipse 269" cx="3.706" cy="4.305" rx="3.706" ry="4.305" transform="translate(0 0)" fill="#24303d"/>
          </g>
        </g>
        <path id="Trazado_1048" data-name="Trazado 1048" d="M589.637,2464.454c1.341,1.525,16.374,11.717,33.042-2.8,4.833-4.664,5.478-9.586,4.135-13.467S616.642,2457.171,589.637,2464.454Z" transform="matrix(0.899, 0.438, -0.438, 0.899, 1291.063, -2139.448)" fill="#24303d"/>
        <path id="Trazado_10403" data-name="Trazado 10403" d="M621.451,2462.684c-1.8-8.311-13.416,2.874-19.5,6.607C607.308,2469.768,614.306,2468.482,621.451,2462.684Z" transform="matrix(0.899, 0.438, -0.438, 0.899, 1291.063, -2139.448)" fill="#dc4d5b"/>
        <path id="Trazado_10404" data-name="Trazado 10404" d="M580.312,2497.385l11.978,12.731a4.911,4.911,0,0,0,7.608,0c3.134-3.5,7.538-8.512,11.1-12.731,0,0-9.009,3.75-15.176,4.518C587.767,2502.908,580.312,2497.385,580.312,2497.385Z" transform="translate(167.818 -2116.48)" fill="#fff"/>
        <path id="Trazado_10405" data-name="Trazado 10405" d="M575.875,2489.944l-.159-5.116a4.228,4.228,0,0,0-2.387.531,38.665,38.665,0,0,0-5.918,5.106c-2.715,3.227-2.349,9.612.362,13.035,2.284,1.122,8.275,16.03,8.727,25.25,5.144-7.053,13.678-17.784,19.686-16.831C590.756,2508.9,580.819,2496.884,575.875,2489.944Z" transform="translate(167.818 -2116.48)" fill="#0094d1"/>
        <path id="Trazado_10406" data-name="Trazado 10406" d="M624.013,2494.9a11.908,11.908,0,0,0-3.39-5.64h0c-.5-1.412-6.61-4.23-6.61-4.23.84,6.623-8.167,17.08-18.145,26.891a24.361,24.361,0,0,1,10.284,3.466c2.476,1.521,4.877,10.565,6.368,13.363,3.535-5.774,6.256-15.908,8.951-19.753A19.446,19.446,0,0,0,624.013,2494.9Z" transform="translate(167.818 -2116.48)" fill="#0094d1"/>
        <path id="Trazado_10677" data-name="Trazado 10677" d="M63.139,129.176a7.2,7.2,0,0,1,5.32-8.847L81.4,117a7.752,7.752,0,0,1,6.745,1.412,51.941,51.941,0,0,0,9.959-7.131,47.328,47.328,0,0,0,13.972-22.65c-.459-.065-.732-.135-.732-.135a4.207,4.207,0,0,1-2.645-3.866V56.024a4.3,4.3,0,0,1,4.382-4.208c.4,0,.829.016,1.3.052l-.008-.105v-.01h.347A50.225,50.225,0,0,0,30.958,19.7,49.666,49.666,0,0,0,14.869,51.753h.183l-.01.115c.479-.035.9-.052,1.3-.052a4.3,4.3,0,0,1,4.385,4.208V84.631a4.3,4.3,0,0,1-4.385,4.209C7.329,88.84,0,78.993,0,70.345v-1.44c0-5.2,2.687-11.462,7.188-14.395A53.856,53.856,0,0,1,24.03,16.176,58.387,58.387,0,0,1,64.709,0a58.383,58.383,0,0,1,40.679,16.176,53.848,53.848,0,0,1,16.841,38.333c4.5,2.934,7.19,9.195,7.19,14.395v1.44c0,6.176-3.808,14.612-9.7,17.139,0,0-.1.033-.3.091a53.563,53.563,0,0,1-6.091,15.982,56.173,56.173,0,0,1-11.942,14.387,58.358,58.358,0,0,1-10.641,7.32,7.344,7.344,0,0,1-5.458,5.685l-12.941,3.33a7.829,7.829,0,0,1-1.951.248A7.482,7.482,0,0,1,63.139,129.176Z" transform="translate(698.026 246.259)" fill="#384a58"/>
        <g id="Grupo_7814" data-name="Grupo 7814" transform="translate(726.633 282.602) rotate(9)">
          <ellipse id="Elipse_270" data-name="Elipse 270" cx="14.534" cy="11.915" rx="14.534" ry="11.915" transform="translate(43.889 4.195) rotate(-8.297)" fill="none" stroke="#fff" stroke-miterlimit="10" stroke-width="1.181"/>
          <ellipse id="Elipse_271" data-name="Elipse 271" cx="14.534" cy="11.915" rx="14.534" ry="11.915" transform="translate(0 10.595) rotate(-8.297)" fill="none" stroke="#fff" stroke-miterlimit="10" stroke-width="1.181"/>
          <path id="Trazado_10402" data-name="Trazado 10402" d="M588.549,2434.817s7.548-3.879,15.125-2.205" transform="translate(-558.066 -2416.627)" fill="none" stroke="#fff" stroke-miterlimit="10" stroke-width="1.181"/>
        </g>
      </g>
    </g>
  </g>
</svg>
