<svg id="Grupo_8528" data-name="Grupo 8528" xmlns="http://www.w3.org/2000/svg" width="12.157" height="12.157" viewBox="0 0 12.157 12.157">
  <path id="Trazado_43" data-name="Trazado 43" d="M11.672,3.721A6.107,6.107,0,0,0,6.079,0,5.817,5.817,0,0,0,3.721.485,6,6,0,0,0,.485,3.721,5.817,5.817,0,0,0,0,6.079,5.817,5.817,0,0,0,.485,8.436a6,6,0,0,0,3.236,3.236,5.9,5.9,0,0,0,2.357.485,5.817,5.817,0,0,0,2.357-.485,6.107,6.107,0,0,0,3.721-5.593,5.817,5.817,0,0,0-.485-2.357ZM10.7,8.76A5.279,5.279,0,0,1,8.737,10.7a5.122,5.122,0,0,1-2.681.716A5.39,5.39,0,0,1,3.975,11a5.805,5.805,0,0,1-1.71-1.133,5.141,5.141,0,0,1-1.133-1.71,5.306,5.306,0,0,1-.416-2.08A5.181,5.181,0,0,1,1.433,3.4,5.391,5.391,0,0,1,3.374,1.456,5.122,5.122,0,0,1,6.056.74a5.181,5.181,0,0,1,2.681.716A5.455,5.455,0,0,1,10.7,3.4a5.122,5.122,0,0,1,.716,2.681A5.241,5.241,0,0,1,10.7,8.76Zm0,0" fill="#39c5c8"/>
  <path id="Trazado_44" data-name="Trazado 44" d="M25.363,13.314V9.87a.385.385,0,0,0-.393-.37.38.38,0,0,0-.37.37v3.49a.081.081,0,0,1,.023.046.342.342,0,0,0,.092.3L26.7,15.694a.363.363,0,0,0,.508,0,.343.343,0,0,0,0-.508Zm0,0" transform="translate(-18.914 -7.304)" fill="#39c5c8"/>
</svg>
