<svg id="Componente_13_66" data-name="Componente 13 – 66" xmlns="http://www.w3.org/2000/svg" width="17" height="17" viewBox="0 0 17 17">
  <g id="Componente_12_2" data-name="Componente 12 – 2" transform="translate(-3 -2)">
    <path id="Trazado_9653" data-name="Trazado 9653" d="M8.5,0A8.5,8.5,0,1,1,0,8.5,8.5,8.5,0,0,1,8.5,0Z" transform="translate(3 2)" fill="#fff"/>
    <g id="Grupo_6904" data-name="Grupo 6904" transform="translate(7.594 8.194)">
      <path id="Trazado_543" data-name="Trazado 543" d="M.873,8.175a.953.953,0,0,1-.585-.195.689.689,0,0,1-.064-1.07L3.159,4.088.225,1.265A.689.689,0,0,1,.289.2.968.968,0,0,1,1.523.251l3.462,3.33a.684.684,0,0,1,0,1.014L1.523,7.924A.933.933,0,0,1,.873,8.175Z" transform="translate(8.175 0) rotate(90)" fill="#00babe"/>
    </g>
  </g>
</svg>
