<svg xmlns="http://www.w3.org/2000/svg" xmlns:xlink="http://www.w3.org/1999/xlink" width="199" height="41" viewBox="0 0 199 41">
  <defs>
    <linearGradient id="linear-gradient" x1="-23.004" y1="-130.206" x2="-23.004" y2="-130.254" gradientUnits="objectBoundingBox">
      <stop offset="0" stop-color="#00b8bd"/>
      <stop offset="1" stop-color="#007374"/>
    </linearGradient>
    <clipPath id="clip-Mesa_de_trabajo_5">
      <rect width="199" height="41"/>
    </clipPath>
  </defs>
  <g id="Mesa_de_trabajo_5" data-name="Mesa de trabajo – 5" clip-path="url(#clip-Mesa_de_trabajo_5)">
    <g id="Grupo_8727" data-name="Grupo 8727" transform="translate(-27 -14)">
      <g id="Grupo_8451" data-name="Grupo 8451">
        <g id="Grupo_7550" data-name="Grupo 7550" transform="translate(27 16.879)">
          <path id="Trazado_10022" data-name="Trazado 10022" d="M27.449,15.468c-4.2,3.279-8.6,6.995-12.8,10.437L2.17,15.468V6.539l6.3-1.923c2.1-.656,4.087-1.3,6.186-1.945,1.825.459,2.689.71,4.514,1.18.492.131,1.858.59,2.372.754A42,42,0,0,1,27.449,6.79Z" transform="translate(0.202 -2.67)" fill="url(#linear-gradient)"/>
          <path id="Trazado_10026" data-name="Trazado 10026" d="M23.3,6.56l-8.59,3.76a7.038,7.038,0,0,1,3.213,2.5,7.312,7.312,0,0,1,.831,1.585l6.918-5.585A5.464,5.464,0,0,0,23.3,6.56Z" transform="translate(1.366 -2.309)" fill="#fff"/>
          <path id="Trazado_10023" data-name="Trazado 10023" d="M27.672,28.331H2.35A2.35,2.35,0,0,1,0,25.981V10.561a2.35,2.35,0,0,1,2.35-2.35L6.033,11.26l8.743,7.311L27.672,8.2a2.426,2.426,0,0,1,1.661.689,2.339,2.339,0,0,1,.689,1.563V25.872a2.383,2.383,0,0,1-2.284,2.459Z" transform="translate(0 -2.156)" fill="#006da7"/>
          <path id="Trazado_10024" data-name="Trazado 10024" d="M27.864,27.347H1.82L14.76,17.62Z" transform="translate(0.169 -1.281)" fill="#0094d1"/>
          <path id="Trazado_10027" data-name="Trazado 10027" d="M2,18.657l8.743-3.814s3.869,3.683,9.137-1.093C23.169,22.6,11.29,29.52,2,18.657Z" transform="translate(0.186 -1.641)" fill="#fff"/>
        </g>
        <path id="Trazado_10642" data-name="Trazado 10642" d="M6084.242,2027a.546.546,0,0,1-.546-.546v-23.366a.546.546,0,0,1,.546-.546h2.187a.546.546,0,0,1,.546.546v1.092s1.465-1.912,5.552-1.912a7.037,7.037,0,0,1,3.88,1.092,7.284,7.284,0,0,1,2.612,3.061,10.932,10.932,0,0,1,.929,4.645,9.753,9.753,0,0,1-.917,4.557c-1.334,2.536-3.432,4.055-7.082,4.055a6.689,6.689,0,0,1-4.939-1.968v8.744a.549.549,0,0,1-.5.546Zm11.061-11.552a6.616,6.616,0,0,0,1.291-4.371,6.99,6.99,0,0,0-1.291-4.524,4.364,4.364,0,0,0-3.573-1.6,4.208,4.208,0,0,0-3.509,1.563,7.053,7.053,0,0,0-1.246,4.524,6.968,6.968,0,0,0,1.246,4.371,4.219,4.219,0,0,0,3.509,1.574A4.366,4.366,0,0,0,6095.3,2015.448ZM6063.97,2027a.546.546,0,0,1-.546-.546v-23.366a.546.546,0,0,1,.546-.546h2.186a.546.546,0,0,1,.546.546v1.092s1.464-1.912,5.552-1.912a7.04,7.04,0,0,1,3.881,1.092,7.291,7.291,0,0,1,2.612,3.061,10.932,10.932,0,0,1,.928,4.645,9.747,9.747,0,0,1-.917,4.557c-1.334,2.536-3.432,4.055-7.082,4.055a6.693,6.693,0,0,1-4.94-1.968v8.744a.547.547,0,0,1-.5.546Zm11.039-11.552a6.665,6.665,0,0,0,1.278-4.371,7.056,7.056,0,0,0-1.278-4.524,4.365,4.365,0,0,0-3.575-1.6,4.207,4.207,0,0,0-3.507,1.563,7.044,7.044,0,0,0-1.246,4.524,6.968,6.968,0,0,0,1.246,4.371,4.216,4.216,0,0,0,3.507,1.574A4.367,4.367,0,0,0,6075.008,2015.448Zm61.072,3.181a6.964,6.964,0,0,1-2.591-3,11.871,11.871,0,0,1,.011-9.18,7.312,7.312,0,0,1,2.657-3.048,8.341,8.341,0,0,1,4.578-1.094,7.145,7.145,0,0,1,4.853,1.979V2003.2a.546.546,0,0,1,.546-.546h2.186a.548.548,0,0,1,.481.569v15.671a.546.546,0,0,1-.546.546h-2.186a.546.546,0,0,1-.546-.546v-1.038a7.651,7.651,0,0,1-4.831,1.815c-.152.008-.3.012-.456.012A8.741,8.741,0,0,1,6136.08,2018.629Zm1.136-12.033a6.959,6.959,0,0,0-1.29,4.47,6.656,6.656,0,0,0,1.29,4.371,4.373,4.373,0,0,0,3.575,1.552,4.238,4.238,0,0,0,3.507-1.563v.022a8.712,8.712,0,0,0,0-8.906,4.234,4.234,0,0,0-3.507-1.563c-.06,0-.118,0-.177,0A4.372,4.372,0,0,0,6137.216,2006.6Zm-93.421,6.307v-9.739a.547.547,0,0,1,.547-.546h2.273a.558.558,0,0,1,.546.546v9.7a4.625,4.625,0,0,0,.842,3.082,3.278,3.278,0,0,0,2.623.984,4.374,4.374,0,0,0,3.279-1.334,4.945,4.945,0,0,0,1.246-3.529V2003.2a.546.546,0,0,1,.546-.546l2.285-.032a.559.559,0,0,1,.546.546v15.727a.556.556,0,0,1-.546.546H6055.8a.546.546,0,0,1-.546-.546v-1.442a7.228,7.228,0,0,1-4.656,2.186C6045.7,2019.635,6043.794,2016.453,6043.794,2012.9Zm-12.906,6.677a17.366,17.366,0,0,1-3.454-.328,12.44,12.44,0,0,1-3.039-.983,11.475,11.475,0,0,1-2.185-1.323.535.535,0,0,1-.153-.667l.732-1.574a.548.548,0,0,1,.82-.2,12.14,12.14,0,0,0,3.1,1.639,13.026,13.026,0,0,0,4.186.634,6.869,6.869,0,0,0,4.371-1.17,3.393,3.393,0,0,0,1.256-2.776,2.429,2.429,0,0,0-.687-1.683,5.1,5.1,0,0,0-1.979-1.092,29.867,29.867,0,0,0-3.016-.842,30.79,30.79,0,0,1-3.432-.918,10.968,10.968,0,0,1-2.689-1.278,5.389,5.389,0,0,1-1.737-1.858,5.656,5.656,0,0,1-.611-2.765,6.225,6.225,0,0,1,1.092-3.628,7.228,7.228,0,0,1,3.082-2.482,11.566,11.566,0,0,1,4.678-.874,14.558,14.558,0,0,1,3.19.35,11.75,11.75,0,0,1,2.832.984,9.473,9.473,0,0,1,1.978,1.3.536.536,0,0,1,.132.656l-.777,1.574a.546.546,0,0,1-.83.186,10.771,10.771,0,0,0-2.788-1.629,10.411,10.411,0,0,0-3.693-.656,6.716,6.716,0,0,0-4.032,1.094,3.429,3.429,0,0,0-1.465,2.962,2.764,2.764,0,0,0,.624,1.88,4.574,4.574,0,0,0,1.836,1.181,22.8,22.8,0,0,0,2.917.874c1.3.283,2.394.6,3.487.95a13.633,13.633,0,0,1,2.8,1.235,5.485,5.485,0,0,1,1.858,1.727,4.977,4.977,0,0,1,.655,2.678,6.015,6.015,0,0,1-1.092,3.6,7.072,7.072,0,0,1-3.137,2.37,12.426,12.426,0,0,1-4.529.856Q6031.039,2019.583,6030.888,2019.579Zm131.625-.076a.5.5,0,0,1-.5-.5v-23.5a.5.5,0,0,1,.5-.5h2.367a.5.5,0,0,1,.5.5V2019a.5.5,0,0,1-.5.5Zm-8.249,0a.547.547,0,0,1-.5-.546v-15.673a.556.556,0,0,1,.546-.546h2.273a.559.559,0,0,1,.546.546v15.673a.546.546,0,0,1-.546.546Zm-28.535-.043a.548.548,0,0,1-.546-.548v-9.737a5.355,5.355,0,0,0-.743-3.158,2.821,2.821,0,0,0-2.416-.995,3.716,3.716,0,0,0-3.039,1.334,5.471,5.471,0,0,0-1.093,3.618v8.939a.547.547,0,0,1-.546.548h-2.273a.548.548,0,0,1-.546-.548v-9.737a5.176,5.176,0,0,0-.766-3.158,2.829,2.829,0,0,0-2.394-.995,3.779,3.779,0,0,0-3.081,1.334,5.463,5.463,0,0,0-1.094,3.618v8.939a.548.548,0,0,1-.546.548h-2.262a.548.548,0,0,1-.546-.548v-13.9c-.021-.589-.065-1.181-.131-1.759a.535.535,0,0,1,.535-.6h2.077a.546.546,0,0,1,.546.492l.209,1.388a6.553,6.553,0,0,1,4.753-2.284,6.938,6.938,0,0,1,3.967,1.092,6.144,6.144,0,0,1,1.388,1.235,6.458,6.458,0,0,1,5.213-2.284,6.143,6.143,0,0,1,6.154,6.492v10.13a.548.548,0,0,1-.546.548Zm31.148-20.514h-2.8a.547.547,0,0,1-.546-.535v-2.437a.546.546,0,0,1,.546-.546h2.8a.546.546,0,0,1,.546.546v2.437a.537.537,0,0,1-.535.536Z" transform="translate(-5950.216 -1981.039)" fill="#fff"/>
      </g>
      <text id="by_Pradek" data-name="by Pradek" transform="translate(226 51)" fill="#f8f9fc" font-size="10" font-family="Nunito-Light, Nunito" font-weight="300"><tspan x="-45.68" y="0">by </tspan><tspan y="0" fill="#00b8bd" font-family="Nunito-Bold, Nunito" font-weight="700">Pradek</tspan></text>
    </g>
  </g>
</svg>
