<svg xmlns="http://www.w3.org/2000/svg" xmlns:xlink="http://www.w3.org/1999/xlink" width="242.531" height="31.518" viewBox="0 0 242.531 31.518">
  <defs>
    <linearGradient id="linear-gradient" x1="0.027" y1="0.414" x2="0.973" y2="0.586" gradientUnits="objectBoundingBox">
      <stop offset="0" stop-color="#02b6ba"/>
      <stop offset="1" stop-color="#1d7273"/>
    </linearGradient>
    <linearGradient id="linear-gradient-2" x1="0" y1="0.5" x2="1" y2="0.5" xlink:href="#linear-gradient"/>
  </defs>
  <g id="Grupo_8599" data-name="Grupo 8599" transform="translate(-566.743 -3028.991)">
    <g id="Grupo_7670" data-name="Grupo 7670">
      <g id="Grupo_7669" data-name="Grupo 7669">
        <g id="Grupo_7668" data-name="Grupo 7668">
          <path id="Trazado_10082" data-name="Trazado 10082" d="M585.326,3036.19a6.848,6.848,0,1,0,7.953-5.521A6.817,6.817,0,0,0,585.326,3036.19Z" fill="url(#linear-gradient)"/>
          <g id="Grupo_7667" data-name="Grupo 7667">
            <path id="Trazado_10083" data-name="Trazado 10083" d="M591.49,3031.113a1.213,1.213,0,0,0-1.227,1.2l2.427.026A1.212,1.212,0,0,0,591.49,3031.113Z" fill="#fff"/>
            <path id="Trazado_10084" data-name="Trazado 10084" d="M595.618,3035.526a1.214,1.214,0,0,0-1.2-1.227l-.027,2.427A1.213,1.213,0,0,0,595.618,3035.526Z" fill="#fff"/>
          </g>
        </g>
      </g>
      <path id="Trazado_10085" data-name="Trazado 10085" d="M569.506,3054.028l-2.715,5.561a.309.309,0,0,0,.425.425l5.56-2.715A11.775,11.775,0,0,1,569.506,3054.028Z" fill="url(#linear-gradient-2)"/>
      <circle id="Elipse_191" data-name="Elipse 191" cx="11.704" cy="11.704" r="11.704" transform="translate(567.549 3035.847)" fill="#2db43e"/>
      <circle id="Elipse_192" data-name="Elipse 192" cx="8.688" cy="8.688" r="8.688" transform="translate(574.132 3035.329)" fill="#028019"/>
    </g>
    <g id="Grupo_7671" data-name="Grupo 7671">
      <path id="Trazado_10086" data-name="Trazado 10086" d="M620.966,3042.69v1.344a.5.5,0,0,0,.5.5h4.554v6.087a16.055,16.055,0,0,1-1.857.489,14.929,14.929,0,0,1-2.861.274,7.021,7.021,0,0,1-5.586-2.177q-1.9-2.175-1.9-6.408,0-4.14,1.842-6.3a6.664,6.664,0,0,1,5.372-2.162,9.248,9.248,0,0,1,3.288.563,10.757,10.757,0,0,1,2.586,1.463.5.5,0,0,0,.755-.175l.7-1.447a.5.5,0,0,0-.116-.6,9.056,9.056,0,0,0-3.022-1.723,12.812,12.812,0,0,0-4.216-.669,11.178,11.178,0,0,0-5.54,1.309,8.781,8.781,0,0,0-3.607,3.8,14.679,14.679,0,0,0,0,11.918,8.838,8.838,0,0,0,3.637,3.8,11.513,11.513,0,0,0,5.693,1.325,22.163,22.163,0,0,0,2.846-.184,20.775,20.775,0,0,0,2.679-.517,10.712,10.712,0,0,0,1.9-.682.5.5,0,0,0,.274-.452v-9.386a.5.5,0,0,0-.5-.5h-6.916A.5.5,0,0,0,620.966,3042.69Z" fill="#fff"/>
      <path id="Trazado_10087" data-name="Trazado 10087" d="M718.768,3038.634,714,3050.205l-4.715-11.569a.5.5,0,0,0-.463-.312h-2.1a.5.5,0,0,0-.459.7l6.141,14.293-.565,1.3a5.8,5.8,0,0,1-1.1,1.736,5.18,5.18,0,0,1-1.6,1.111,10.631,10.631,0,0,1-1.848.626.5.5,0,0,0-.37.62l.4,1.436a.507.507,0,0,0,.574.362,11.394,11.394,0,0,0,2.533-.777,7.6,7.6,0,0,0,2.45-1.75,10.715,10.715,0,0,0,1.933-3.089l6.852-15.863a.5.5,0,0,0-.458-.7h-1.98A.5.5,0,0,0,718.768,3038.634Z" fill="#fff"/>
      <path id="Trazado_10088" data-name="Trazado 10088" d="M641.041,3037.958c-1.708,0-4,.766-4.776,2.655l-.173-1.836a.5.5,0,0,0-.5-.453h-1.906a.493.493,0,0,0-.489.556q.092.8.126,1.605.045,1.1.045,2.162v10.52a.5.5,0,0,0,.5.5h2.075a.5.5,0,0,0,.5-.5v-8.054a5.427,5.427,0,0,1,.441-2.177,3.759,3.759,0,0,1,1.355-1.644,4.185,4.185,0,0,1,2.4-.623,5.4,5.4,0,0,1,1.228.134.492.492,0,0,0,.583-.482l.038-1.763a.492.492,0,0,0-.386-.5A5.113,5.113,0,0,0,641.041,3037.958Z" fill="#fff"/>
      <path id="Trazado_10089" data-name="Trazado 10089" d="M692.746,3059.91v-8a6.119,6.119,0,0,0,4.525,1.8c3.341,0,5.262-1.392,6.48-3.715a8.945,8.945,0,0,0,.837-4.17,9.883,9.883,0,0,0-.852-4.247,6.559,6.559,0,0,0-2.39-2.8,6.406,6.406,0,0,0-3.547-.988c-3.745,0-5.083,1.741-5.083,1.741V3038.5a.5.5,0,0,0-.5-.5h-2.044a.5.5,0,0,0-.5.5v21.406a.5.5,0,0,0,.5.5h2.074A.5.5,0,0,0,692.746,3059.91Zm1.112-18.253a3.872,3.872,0,0,1,3.211-1.43,3.955,3.955,0,0,1,3.272,1.46,6.465,6.465,0,0,1,1.172,4.141,6.1,6.1,0,0,1-1.172,4,4.01,4.01,0,0,1-3.272,1.416,3.857,3.857,0,0,1-3.211-1.446,6.352,6.352,0,0,1-1.142-4.033A6.452,6.452,0,0,1,693.858,3041.657Z" fill="#fff"/>
      <path id="Trazado_10090" data-name="Trazado 10090" d="M732.489,3040.688a.5.5,0,0,0,.5-.5v-1.375a.5.5,0,0,0-.5-.5h-3.731v-4.2a.5.5,0,0,0-.663-.472l-2.076.719a.5.5,0,0,0-.336.472v3.481H723.2a.5.5,0,0,0-.5.5v1.375a.5.5,0,0,0,.5.5h2.483v7.945a5.3,5.3,0,0,0,1.325,3.911,4.951,4.951,0,0,0,3.668,1.325,11.5,11.5,0,0,0,1.882-.236.5.5,0,0,0,.4-.49v-1.491a.5.5,0,0,0-.589-.491,7.076,7.076,0,0,1-1.025.121,3.27,3.27,0,0,1-1.324-.259,1.91,1.91,0,0,1-.928-.883,3.754,3.754,0,0,1-.335-1.75v-7.7Z" fill="#fff"/>
      <path id="Trazado_10091" data-name="Trazado 10091" d="M679.57,3037.883a5.915,5.915,0,0,0-4.775,2.086,5.468,5.468,0,0,0-1.268-1.133,6.376,6.376,0,0,0-3.63-.951,6.023,6.023,0,0,0-4.353,2.082l-.19-1.263a.5.5,0,0,0-.5-.456h-1.9a.493.493,0,0,0-.489.556q.092.8.126,1.6.045,1.1.045,2.161v10.521a.5.5,0,0,0,.5.5h2.075a.5.5,0,0,0,.5-.5v-8.177a5,5,0,0,1,1.02-3.318,3.473,3.473,0,0,1,2.816-1.218,2.586,2.586,0,0,1,2.191.914,4.773,4.773,0,0,1,.7,2.892v8.907a.5.5,0,0,0,.5.5h2.075a.5.5,0,0,0,.5-.5v-8.177a5,5,0,0,1,1.02-3.318,3.438,3.438,0,0,1,2.785-1.218,2.578,2.578,0,0,1,2.207.914,4.853,4.853,0,0,1,.685,2.892v8.907a.5.5,0,0,0,.5.5h2.075a.5.5,0,0,0,.5-.5v-9.267A5.613,5.613,0,0,0,679.57,3037.883Z" fill="#fff"/>
      <path id="Trazado_10092" data-name="Trazado 10092" d="M761.238,3037.958c-1.708,0-4,.766-4.776,2.655l-.173-1.836a.5.5,0,0,0-.5-.453h-1.906a.493.493,0,0,0-.489.556q.091.8.126,1.605.045,1.1.045,2.162v10.52a.5.5,0,0,0,.5.5h2.075a.5.5,0,0,0,.5-.5v-8.054a5.427,5.427,0,0,1,.441-2.177,3.759,3.759,0,0,1,1.355-1.644,4.187,4.187,0,0,1,2.405-.623,5.4,5.4,0,0,1,1.227.134.492.492,0,0,0,.583-.482l.038-1.763a.491.491,0,0,0-.386-.5A5.114,5.114,0,0,0,761.238,3037.958Z" fill="#fff"/>
      <path id="Trazado_10093" data-name="Trazado 10093" d="M774.1,3040.688a.5.5,0,0,0,.5-.5v-1.375a.5.5,0,0,0-.5-.5h-3.731v-4.2a.5.5,0,0,0-.663-.472l-2.076.719a.5.5,0,0,0-.336.472v3.481h-2.484a.5.5,0,0,0-.5.5v1.375a.5.5,0,0,0,.5.5H767.3v7.945a5.3,5.3,0,0,0,1.324,3.911,4.953,4.953,0,0,0,3.669,1.325,11.518,11.518,0,0,0,1.882-.236.5.5,0,0,0,.4-.49v-1.491a.5.5,0,0,0-.588-.491,7.075,7.075,0,0,1-1.025.121,3.271,3.271,0,0,1-1.324-.259,1.9,1.9,0,0,1-.928-.883,3.742,3.742,0,0,1-.335-1.75v-7.7Z" fill="#fff"/>
      <path id="Trazado_10094" data-name="Trazado 10094" d="M777.4,3053.167v-21.405a.5.5,0,0,1,.5-.5h2.076a.5.5,0,0,1,.5.5v21.405a.5.5,0,0,1-.5.5H777.9A.5.5,0,0,1,777.4,3053.167Z" fill="#fff"/>
      <path id="Trazado_10095" data-name="Trazado 10095" d="M794.966,3038.872a6.687,6.687,0,0,0-3.562-.914,7.146,7.146,0,0,0-3.8,1.006,6.928,6.928,0,0,0-2.572,2.8,8.956,8.956,0,0,0-.929,4.17,9.046,9.046,0,0,0,.944,4.261,6.412,6.412,0,0,0,2.71,2.74,8.788,8.788,0,0,0,4.2.943,10.088,10.088,0,0,0,5.076-1.459.49.49,0,0,0,.141-.59l-.544-1.263a.508.508,0,0,0-.756-.2,7.062,7.062,0,0,1-3.856,1.079,4.613,4.613,0,0,1-3.653-1.417,6.132,6.132,0,0,1-1.228-3.971l10.446,0a.49.49,0,0,0,.493-.482,9.823,9.823,0,0,0-.807-4.1A5.988,5.988,0,0,0,794.966,3038.872Zm.341,5.088h-8.014a5.211,5.211,0,0,1,.976-2.272,3.867,3.867,0,0,1,3.2-1.446,3.491,3.491,0,0,1,2.953,1.309A4.975,4.975,0,0,1,795.307,3043.96Z" fill="#fff"/>
      <path id="Trazado_10096" data-name="Trazado 10096" d="M655.621,3038.324a.5.5,0,0,0-.5.5v8.115a4.523,4.523,0,0,1-1.142,3.227,3.916,3.916,0,0,1-3,1.218,2.991,2.991,0,0,1-2.39-.9,4.187,4.187,0,0,1-.776-2.785v-8.876a.5.5,0,0,0-.5-.5H645.24a.5.5,0,0,0-.5.5v8.906c0,3.239,1.738,6.149,6.215,6.149a6.611,6.611,0,0,0,4.257-2.024v1.312a.5.5,0,0,0,.5.5H657.7a.5.5,0,0,0,.5-.5v-14.343a.5.5,0,0,0-.5-.5Z" fill="#fff"/>
      <path id="Trazado_10097" data-name="Trazado 10097" d="M746.579,3038.324a.5.5,0,0,0-.5.5v8.115a4.527,4.527,0,0,1-1.142,3.227,3.917,3.917,0,0,1-3,1.218,2.99,2.99,0,0,1-2.39-.9,4.182,4.182,0,0,1-.776-2.785v-8.876a.5.5,0,0,0-.5-.5H736.2a.5.5,0,0,0-.5.5v8.906c0,3.239,1.738,6.149,6.215,6.149a6.611,6.611,0,0,0,4.257-2.024v1.312a.5.5,0,0,0,.5.5h1.984a.5.5,0,0,0,.5-.5v-14.343a.5.5,0,0,0-.5-.5Z" fill="#fff"/>
    </g>
    <g id="Grupo_7673" data-name="Grupo 7673">
      <g id="Grupo_7672" data-name="Grupo 7672">
        <path id="Trazado_10098" data-name="Trazado 10098" d="M805.646,3034.212a1.02,1.02,0,0,0-.323-.109,1.58,1.58,0,0,0,.845-.34,1.462,1.462,0,0,0-.006-2.083,1.816,1.816,0,0,0-1.246-.387h-2.033v4.794h.921v-1.9h.55a.708.708,0,0,1,.371.084.884.884,0,0,1,.258.275l.876,1.539H806.9l-.853-1.437A1.1,1.1,0,0,0,805.646,3034.212Zm-.842-.719h-1v-1.459h1a1.06,1.06,0,0,1,.673.173.693.693,0,0,1,.213.568.662.662,0,0,1-.213.544A1.06,1.06,0,0,1,804.8,3033.493Z" fill="#fff"/>
        <path id="Trazado_10099" data-name="Trazado 10099" d="M808.915,3031.826a4.574,4.574,0,0,0-1-1.487,4.7,4.7,0,0,0-1.493-.991,5.012,5.012,0,0,0-3.715,0,4.681,4.681,0,0,0-1.492.991,4.527,4.527,0,0,0-1,1.487,4.967,4.967,0,0,0,0,3.708,4.63,4.63,0,0,0,1,1.506,4.574,4.574,0,0,0,1.492,1,5,5,0,0,0,3.715,0,4.589,4.589,0,0,0,1.493-1,4.678,4.678,0,0,0,1-1.506,4.967,4.967,0,0,0,0-3.708Zm-.852,3.375a3.615,3.615,0,0,1-.791,1.218,3.707,3.707,0,0,1-1.2.81,3.791,3.791,0,0,1-1.5.293,3.833,3.833,0,0,1-1.511-.293,3.7,3.7,0,0,1-1.207-.81,3.614,3.614,0,0,1-.791-1.218,4.024,4.024,0,0,1-.281-1.517,3.977,3.977,0,0,1,.281-1.511,3.573,3.573,0,0,1,.791-1.206,3.754,3.754,0,0,1,1.207-.8,3.849,3.849,0,0,1,1.511-.292,3.808,3.808,0,0,1,1.5.292,3.766,3.766,0,0,1,1.2.8,3.574,3.574,0,0,1,.791,1.206,3.978,3.978,0,0,1,.281,1.511A4.025,4.025,0,0,1,808.063,3035.2Z" fill="#fff"/>
      </g>
    </g>
  </g>
</svg>
